<svg xmlns="http://www.w3.org/2000/svg" width="85" height="85" viewBox="0 0 85 85">
  <g id="Grupo_1054415" data-name="Grupo 1054415" transform="translate(-787 -538)">
    <circle id="Elipse_4745" data-name="Elipse 4745" cx="42.5" cy="42.5" r="42.5" transform="translate(787 538)" fill="#39a900"/>
    <circle id="Elipse_4746" data-name="Elipse 4746" cx="8.5" cy="8.5" r="8.5" transform="translate(793 542)" fill="#ffce40"/>
    <g id="empleado-de-oficina" transform="translate(733.337 515.58)">
      <path id="Trazado_771907" data-name="Trazado 771907" d="M118.966,257.36h-5.482l3.937-3.823a5.6,5.6,0,0,0,1.424-6c-.535-1.463-1.256-4.3-1.954-7.035a61.653,61.653,0,0,0-2.162-7.476,8.831,8.831,0,0,0-4.468-3.99,20.329,20.329,0,0,0-5.826-1.629H104.4a82.835,82.835,0,0,0-16.87,0h-.019a20.276,20.276,0,0,0-5.826,1.629,8.81,8.81,0,0,0-4.468,3.99,58.036,58.036,0,0,0-2.086,7.353c-.684,2.759-1.392,5.612-1.931,7.089a5.578,5.578,0,0,0,1.51,6.085l4.1,3.808H73.361a.971.971,0,1,0,0,1.942h45.6a.971.971,0,1,0,0-1.942Zm-36.593,0-1.436-17.143H111.39l-1.436,17.143Zm30.6-23.5A64.567,64.567,0,0,1,115,240.983c.71,2.786,1.444,5.666,2.012,7.221a3.655,3.655,0,0,1-.932,3.923l-.012.012-4.063,3.945,1.4-16.756a.974.974,0,0,0-.969-1.053H99.666l-.809-5.179,1.653-4.045q1.828.1,3.691.281C109.4,230.01,112.14,232.115,112.971,233.862Zm-14.521-4.9-1.493,3.649a.97.97,0,0,0-.061.518l.8,5.145H94.626l.8-5.145a.97.97,0,0,0-.061-.518l-1.5-3.672q2.253-.054,4.582.023ZM76.022,252.112a3.642,3.642,0,0,1-.992-3.976c.576-1.574,1.295-4.479,1.993-7.288a62.385,62.385,0,0,1,1.954-6.992c.833-1.748,3.575-3.853,8.777-4.532q1.982-.218,4.046-.321l1.67,4.082-.809,5.179H79.882a.974.974,0,0,0-.969,1.053l1.4,16.774-4.284-3.979Z" transform="translate(0 -165.885)" fill="#fff"/>
      <path id="Trazado_771908" data-name="Trazado 771908" d="M239.556,415.83h-3.465a.971.971,0,1,0,0,1.942h3.465a.971.971,0,1,0,0-1.942Z" transform="translate(-141.66 -330.285)" fill="#fff"/>
      <path id="Trazado_771909" data-name="Trazado 771909" d="M247.295,387.41A1.295,1.295,0,1,0,246,386.115,1.295,1.295,0,0,0,247.295,387.41Z" transform="translate(-151.131 -303.29)" fill="#fff"/>
      <path id="Trazado_771910" data-name="Trazado 771910" d="M179.907,59.769a10.34,10.34,0,0,0,7.958-4.211,14.116,14.116,0,0,0,3.2-8.675c0-5.965-4.791-10.463-11.157-10.463s-11.157,4.5-11.157,10.463a14.074,14.074,0,0,0,3.2,8.675A10.335,10.335,0,0,0,179.907,59.769Zm6.448-5.438a7.694,7.694,0,0,1-12.9,0,12.505,12.505,0,0,1-2.735-6.7,14.22,14.22,0,0,0,3.992.618,10.616,10.616,0,0,0,7.769-3.388,7.647,7.647,0,0,0,6.627,1.683c0,.109.008.216.008.326a12.3,12.3,0,0,1-2.764,7.467Zm-13-13.6a10.188,10.188,0,0,1,13.1,0,8.02,8.02,0,0,1,2.372,3.884,5.762,5.762,0,0,1-5.671-1.813.97.97,0,0,0-1.438.025c-2.94,3.366-6.425,4.251-10.937,2.78a8.063,8.063,0,0,1,2.574-4.871Z" transform="translate(-83.884)" fill="#fff"/>
    </g>
  </g>
</svg>
