<svg xmlns="http://www.w3.org/2000/svg" xmlns:xlink="http://www.w3.org/1999/xlink" width="1006" height="540.2" viewBox="0 0 1006 540.2">
  <defs>
    <clipPath id="clip-path">
      <circle id="Elipse_4740" data-name="Elipse 4740" cx="68.4" cy="68.4" r="68.4" transform="translate(525.3 5621.5)"/>
    </clipPath>
  </defs>
  <g id="Grupo_1054435" data-name="Grupo 1054435" transform="translate(-297 -3606)">
    <g id="Grupo_1054434" data-name="Grupo 1054434">
      <path id="Elipse_4103" d="M106.7,0c58.929,0,106.7,46.383,106.7,103.6S165.629,207.2,106.7,207.2,0,160.817,0,103.6,47.771,0,106.7,0Z" transform="translate(648.242 3856.089)" fill="#df1024"/>
      <path id="Elipse_4104" d="M68.4,0A68.4,68.4,0,1,1,0,68.4,68.4,68.4,0,0,1,68.4,0Z" transform="translate(686.042 3892.689)" fill="#fff"/>
      <path id="Trazado_101842" d="M519.6,5548H666.3l-8.8,6.6H529.4Z" transform="translate(160.742 -1728.811)" fill="#f9b522"/>
      <path id="Trazado_101843" d="M603.7,5748.4s5.3-6.8-.5-8.9-16.8-1.3-23.4-9.8,2-27.8,2-27.8l3.6,7.1-.6,3.7v2.7l-1.3,3.3a14.058,14.058,0,0,0,10.7,13c10.7,3,18.8,4.9,13.7,12.4A10.843,10.843,0,0,1,603.7,5748.4Z" transform="translate(160.742 -1728.811)" fill="#759289"/>
      <path id="Trazado_101844" d="M603.7,5748.7c-.1,0-.1,0-.2-.1s-.1-.2,0-.4c0,0,2.8-3.6,2.1-6.2a3.525,3.525,0,0,0-2.4-2.2,38.966,38.966,0,0,0-5.7-1.3c-5.8-1-12.9-2.4-17.8-8.6-6.6-8.5,1.6-27.3,2-28.1a.215.215,0,0,1,.2-.2h0a.349.349,0,0,1,.2.1l3.6,7.1v.2l-.6,3.7v2.7l-1.3,3.3a13.849,13.849,0,0,0,10.5,12.7l1.1.3c7.2,2,12.9,3.5,14.1,6.9.6,1.6.1,3.4-1.3,5.6a11.2,11.2,0,0,1-4.4,4.5Zm-21.8-46.2c-1.3,3.2-7.6,19.6-1.8,27,4.7,6.1,11.8,7.4,17.4,8.4a37.512,37.512,0,0,1,5.8,1.3,3.918,3.918,0,0,1,2.7,2.6c.5,1.9-.5,4-1.3,5.4a10.979,10.979,0,0,0,3-3.4c1.4-2.1,1.8-3.8,1.3-5.2-1.1-3.1-6.7-4.6-13.7-6.6l-1.1-.3a14.269,14.269,0,0,1-10.9-13.2v-.1l1.3-3.3v-2.6l.6-3.7Z" transform="translate(160.742 -1728.811)" fill="#ffcf6e"/>
      <path id="Trazado_101845" d="M491.2,5530.7H694.7l-8.4,6.6H498.9Z" transform="translate(160.742 -1728.811)" fill="#f9b522"/>
      <path id="Trazado_101846" d="M616.5,5511.3h94.8l-5.5,6.6H612.4Z" transform="translate(160.742 -1728.811)" fill="#f9b522"/>
      <path id="Trazado_101847" d="M624.3,5491.7h99.4l-3.8,6.6H624.7Z" transform="translate(160.742 -1728.811)" fill="#f9b522"/>
      <path id="Trazado_101848" d="M571.9,5511.3H472.4l5.5,6.6H576Z" transform="translate(160.742 -1728.811)" fill="#f9b522"/>
      <path id="Trazado_101849" d="M564.9,5491.7H460l3.8,6.6H564.4Z" transform="translate(160.742 -1728.811)" fill="#f9b522"/>
      <path id="Trazado_101850" d="M558.6,5495s12.4,33.2,35,33.4,36.6-32.7,36.6-32.7l1.2-4h-8s-11.4,30.5-29.7,30c0,0-18.2,2.5-29-30Z" transform="translate(160.742 -1728.811)" fill="#f9b522"/>
      <path id="Elipse_4105" d="M15.8,0A15.8,15.8,0,1,1,0,15.8,15.8,15.8,0,0,1,15.8,0Z" transform="translate(739.342 3723.189)"/>
      <path id="Elipse_4106" d="M4.6,0A4.6,4.6,0,1,1,0,4.6,4.6,4.6,0,0,1,4.6,0Z" transform="translate(746.042 3748.489)"/>
      <path id="Elipse_4107" d="M4.6,0A4.6,4.6,0,1,1,0,4.6,4.6,4.6,0,0,1,4.6,0Z" transform="translate(755.742 3748.489)"/>
      <path id="Trazado_101851" d="M593.7,5637.9A19.324,19.324,0,0,1,582,5635a20.891,20.891,0,0,1-6.4-6.5c-1.2-2.2-1-4.7-.9-7.3a13.8,13.8,0,0,1,1.4-5.9,4,4,0,0,1,1-1.8,7.673,7.673,0,0,1,1.8-1c.8-.4.9-1,2.4-3.4.8-1.3.7-1.1,1.5-2.5a13.684,13.684,0,0,0,1.6-3.2,3.872,3.872,0,0,0,.3-2.6,1.967,1.967,0,0,0-1.5-1.3,2.026,2.026,0,0,0-1.5.4c-2.9,1.5-1,.2-3.2,1.5a55.441,55.441,0,0,0-5.1,3.3,5.481,5.481,0,0,0-1.6,1.8,6.1,6.1,0,0,0-.5,1.2c-.3,1-.8,1.4-1.7,3a25.277,25.277,0,0,0-1.8,3.7,14.1,14.1,0,0,0-.7,4.1,19.543,19.543,0,0,0-.1,5.4,18.512,18.512,0,0,0,1.3,6.1,21.5,21.5,0,0,0,6.1,8.7,23.965,23.965,0,0,0,11.3,5.5,45.921,45.921,0,0,0,8.3,1c1.2,0,2.9.1,4.4.2,1.4.1,3.6,1.2,5.8,3a24.317,24.317,0,0,1,3.4,3,14.57,14.57,0,0,1,2.9,4.1c.3.7,2.1,4.9.5,8.7-1,2.2-2.6,3.2-2.2,3.8.3.5,1.4.3,3.6,0a10.283,10.283,0,0,0,2.4-.5,7.053,7.053,0,0,0,3.1-3.5,9.466,9.466,0,0,0,.8-3,16.142,16.142,0,0,0-.7-6.9c-.9-2.6-2.2-4.2-4.3-6.8a28.444,28.444,0,0,0-5.2-5.2,16.616,16.616,0,0,0-8.4-4.1A33.571,33.571,0,0,0,593.7,5637.9Z" transform="translate(160.742 -1728.811)" fill="#759289"/>
      <path id="Trazado_101852" d="M609.7,5668.6c-.6,0-1-.1-1.1-.4-.3-.5.1-1,.7-1.7a9.743,9.743,0,0,0,1.5-2.4c1.5-3.3.2-7-.5-8.5a14.368,14.368,0,0,0-2.8-4,23.648,23.648,0,0,0-3.4-2.9,14.285,14.285,0,0,0-5.7-3,34.641,34.641,0,0,0-4.4-.2,45.042,45.042,0,0,1-8.4-1,23.965,23.965,0,0,1-11.3-5.5l-.1-.1a21.77,21.77,0,0,1-6.2-8.8,20.1,20.1,0,0,1-1.3-6v-.2a24.389,24.389,0,0,1,.1-5.4,6.6,6.6,0,0,0,.1-1.4,6.267,6.267,0,0,1,.6-2.7l.2-.5c.4-.9.6-1.3,1.6-3.2a8.632,8.632,0,0,1,1-1.6,8.265,8.265,0,0,0,.7-1.3v-.2a3.7,3.7,0,0,1,.5-1.1,6.134,6.134,0,0,1,1.7-1.9,45.175,45.175,0,0,1,5.1-3.4,3.7,3.7,0,0,1,1.4-.7,14.221,14.221,0,0,0,1.8-.8,2.544,2.544,0,0,1,1.7-.4,2.342,2.342,0,0,1,1.7,1.5,3.47,3.47,0,0,1-.3,2.8,16.818,16.818,0,0,1-1.6,3.3c-.4.7-.6,1-.8,1.3a7.159,7.159,0,0,0-.7,1.1c-.4.7-.7,1.2-.9,1.6-.7,1.2-.9,1.6-1.6,1.9l-.4.2a5.384,5.384,0,0,0-1.3.7,2.222,2.222,0,0,0-.8,1.3.758.758,0,0,1-.2.4,14.544,14.544,0,0,0-1.4,5.8v.5c-.1,2.4-.2,4.7.9,6.7a19.275,19.275,0,0,0,6.3,6.4,17.849,17.849,0,0,0,11.5,2.8h1.2a22.636,22.636,0,0,1,5.2.2,16.43,16.43,0,0,1,8.1,3.8c.2.1.3.3.4.3a26.615,26.615,0,0,1,5.3,5.3c2.2,2.6,3.5,4.2,4.3,6.9a16.6,16.6,0,0,1,.7,7,10.239,10.239,0,0,1-.8,3,6.852,6.852,0,0,1-3.2,3.7,10.281,10.281,0,0,1-2.4.5Q611.2,5668.45,609.7,5668.6ZM594,5644.9h0c1.3,0,2.9.1,4.5.2a14.257,14.257,0,0,1,6,3.1,32.665,32.665,0,0,1,3.5,3,13.716,13.716,0,0,1,2.9,4.2c.7,1.5,2,5.4.5,8.9a13.247,13.247,0,0,1-1.6,2.5c-.4.5-.7.9-.6,1.1.2.3,1.5.1,3.4-.1a8.572,8.572,0,0,0,2.3-.5,5.755,5.755,0,0,0,2.9-3.4,9.473,9.473,0,0,0,.7-2.9,15.088,15.088,0,0,0-.7-6.7c-.8-2.6-2.1-4.1-4.2-6.7a25.627,25.627,0,0,0-5.2-5.2c-.1-.1-.3-.2-.4-.4a15.319,15.319,0,0,0-7.8-3.7,21.832,21.832,0,0,0-5.1-.2h-1.2a19.629,19.629,0,0,1-11.8-2.9,22.714,22.714,0,0,1-6.5-6.6c-1.2-2.1-1.1-4.5-1-7v-.5a13.9,13.9,0,0,1,1.4-6c.1-.1.1-.2.1-.4a3.071,3.071,0,0,1,1-1.5,6.372,6.372,0,0,1,1.4-.8l.4-.2c.5-.2.7-.6,1.3-1.7a14.579,14.579,0,0,1,.9-1.6c.4-.6.5-.9.7-1.2s.4-.6.8-1.3a19.12,19.12,0,0,0,1.6-3.2c.4-1.1.6-1.7.3-2.4a1.952,1.952,0,0,0-1.3-1.2,2.771,2.771,0,0,0-1.3.3,7.212,7.212,0,0,1-2,.9,5.384,5.384,0,0,0-1.3.7,53.981,53.981,0,0,0-5,3.3,4.86,4.86,0,0,0-1.5,1.7,4.18,4.18,0,0,0-.4,1l-.1.2a5.484,5.484,0,0,1-.8,1.5c-.3.5-.7,1-1,1.6-1,2-1.2,2.3-1.6,3.2l-.2.5a7.512,7.512,0,0,0-.5,2.6,6.749,6.749,0,0,1-.2,1.4,18.829,18.829,0,0,0-.1,5.3v.2a16.836,16.836,0,0,0,1.3,5.8,21.866,21.866,0,0,0,6.1,8.6l.1.1a22.8,22.8,0,0,0,11,5.4,45.875,45.875,0,0,0,8.3,1Z" transform="translate(160.742 -1728.811)" fill="#ffcf6e"/>
      <path id="Trazado_101853" d="M595.9,5637.9a19.324,19.324,0,0,0,11.7-2.9,20.891,20.891,0,0,0,6.4-6.5c1.2-2.2,1-4.7.9-7.3a13.8,13.8,0,0,0-1.4-5.9,4,4,0,0,0-1-1.8,7.673,7.673,0,0,0-1.8-1c-.8-.4-.9-1-2.4-3.4-.8-1.3-.7-1.1-1.5-2.5a13.684,13.684,0,0,1-1.6-3.2,3.872,3.872,0,0,1-.3-2.6,1.967,1.967,0,0,1,1.5-1.3,2.026,2.026,0,0,1,1.5.4c2.9,1.5,1,.2,3.2,1.5a55.441,55.441,0,0,1,5.1,3.3,5.481,5.481,0,0,1,1.6,1.8,6.1,6.1,0,0,1,.5,1.2c.3,1,.8,1.4,1.7,3a25.277,25.277,0,0,1,1.8,3.7,14.1,14.1,0,0,1,.7,4.1,19.543,19.543,0,0,1,.1,5.4,18.512,18.512,0,0,1-1.3,6.1,21.5,21.5,0,0,1-6.1,8.7,23.075,23.075,0,0,1-11.3,5.5,45.921,45.921,0,0,1-8.3,1c-1.2,0-2.9.1-4.4.2-1.4.1-3.6,1.2-5.8,3a24.317,24.317,0,0,0-3.4,3,14.57,14.57,0,0,0-2.9,4.1c-.3.7-2.1,4.9-.5,8.7,1,2.2,2.6,3.2,2.2,3.8-.3.5-1.4.3-3.6,0a10.283,10.283,0,0,1-2.4-.5,7.053,7.053,0,0,1-3.1-3.5,9.466,9.466,0,0,1-.8-3,16.142,16.142,0,0,1,.7-6.9c.9-2.6,2.2-4.2,4.3-6.8a28.444,28.444,0,0,1,5.2-5.2,16.616,16.616,0,0,1,8.4-4.1A33.571,33.571,0,0,1,595.9,5637.9Z" transform="translate(160.742 -1728.811)" fill="#759289"/>
      <path id="Trazado_101854" d="M579.9,5668.6a12.43,12.43,0,0,1-2.7-.3,11.1,11.1,0,0,1-2.5-.5,6.85,6.85,0,0,1-3.2-3.7,11.134,11.134,0,0,1-.8-3,16.6,16.6,0,0,1,.7-7c.9-2.7,2.2-4.2,4.3-6.9a26.615,26.615,0,0,1,5.3-5.3c.1-.1.3-.2.4-.3a16.43,16.43,0,0,1,8.1-3.8,22.691,22.691,0,0,1,5.2-.2h1.2a19.522,19.522,0,0,0,11.5-2.8,20.269,20.269,0,0,0,6.3-6.4c1.1-2,1-4.3.9-6.7v-.5a13.044,13.044,0,0,0-1.4-5.8c-.1-.1-.1-.3-.2-.4a1.992,1.992,0,0,0-.8-1.2,3.3,3.3,0,0,0-1.3-.7l-.4-.2c-.7-.3-.9-.7-1.6-1.9a14.579,14.579,0,0,0-.9-1.6,11.539,11.539,0,0,0-.7-1.1c-.2-.3-.4-.6-.8-1.3a12.619,12.619,0,0,1-1.6-3.3,4.466,4.466,0,0,1-.3-2.8,2.342,2.342,0,0,1,1.7-1.5,2.544,2.544,0,0,1,1.7.4,14.151,14.151,0,0,0,1.8.8,6.107,6.107,0,0,1,1.4.7,34.815,34.815,0,0,1,5.1,3.4,6.139,6.139,0,0,1,1.7,1.9,4.877,4.877,0,0,1,.4,1.1l.1.2a5.385,5.385,0,0,0,.7,1.3,14,14,0,0,1,1,1.6c1.1,2,1.2,2.4,1.6,3.2l.2.5a6.6,6.6,0,0,1,.6,2.7c0,.4.1.9.1,1.4a19.543,19.543,0,0,1,.1,5.4v.2a17.943,17.943,0,0,1-1.3,6,21.77,21.77,0,0,1-6.2,8.8l-.1.1a23.075,23.075,0,0,1-11.3,5.5,48.135,48.135,0,0,1-8.4,1c-1.2,0-2.9.1-4.4.2-1.4.1-3.5,1.3-5.7,2.9a32.352,32.352,0,0,0-3.4,2.9,13.773,13.773,0,0,0-2.8,4c-.6,1.4-1.9,5.1-.5,8.5a12.035,12.035,0,0,0,1.5,2.4c.6.7,1,1.2.7,1.7C580.9,5668.5,580.5,5668.6,579.9,5668.6Zm13.2-30.5a19.558,19.558,0,0,0-3.4.3,15.319,15.319,0,0,0-7.8,3.7c-.2.1-.3.3-.4.4a25.627,25.627,0,0,0-5.2,5.2c-2.1,2.6-3.4,4.1-4.2,6.7a17.065,17.065,0,0,0-.7,6.7,13.652,13.652,0,0,0,.7,2.9,6.111,6.111,0,0,0,2.9,3.4,15.525,15.525,0,0,0,2.3.5c1.8.3,3.2.4,3.4.1.1-.2-.2-.6-.6-1.1a10.685,10.685,0,0,1-1.6-2.5c-1.6-3.5-.2-7.4.5-8.9a13.716,13.716,0,0,1,2.9-4.2,25.156,25.156,0,0,1,3.5-3,13.726,13.726,0,0,1,6-3.1,35.431,35.431,0,0,1,4.4-.2h.1a58.511,58.511,0,0,0,8.3-.9,21.96,21.96,0,0,0,11-5.4l.1-.1a20.671,20.671,0,0,0,6-8.6,23.2,23.2,0,0,0,1.3-5.8v-.2a23.5,23.5,0,0,0-.1-5.3c-.1-.5-.1-1-.2-1.4a7.986,7.986,0,0,0-.5-2.6l-.2-.5c-.4-.9-.6-1.2-1.6-3.2a14,14,0,0,0-1-1.6,7.142,7.142,0,0,1-.8-1.5l-.1-.2a2.993,2.993,0,0,0-.4-1,4.981,4.981,0,0,0-1.5-1.7,53.882,53.882,0,0,0-5-3.3,5.4,5.4,0,0,0-1.3-.7,6.64,6.64,0,0,1-1.9-.9,2.3,2.3,0,0,0-1.4-.4,1.952,1.952,0,0,0-1.3,1.2c-.3.7-.1,1.3.3,2.4a19.125,19.125,0,0,0,1.6,3.2c.4.7.6,1,.8,1.3a9.646,9.646,0,0,1,.7,1.2c.4.7.7,1.2.9,1.6.6,1.1.8,1.5,1.3,1.7l.4.2a6.392,6.392,0,0,1,1.4.8,3.071,3.071,0,0,1,1,1.5c0,.1.1.3.1.4a13.9,13.9,0,0,1,1.4,6v.5c.1,2.5.2,4.8-1,7a19.658,19.658,0,0,1-18.3,9.5h-1.2a7.109,7.109,0,0,0-1.6-.1Z" transform="translate(160.742 -1728.811)" fill="#ffcf6e"/>
      <path id="Trazado_101855" d="M584.8,5748.4s-5.3-6.8.5-8.9,16.8-1.3,23.4-9.8-2-27.8-2-27.8l-3.6,7.1.6,3.7v2.7l1.3,3.3a14.058,14.058,0,0,1-10.7,13c-10.7,3-18.8,4.9-13.7,12.4A10.843,10.843,0,0,0,584.8,5748.4Z" transform="translate(160.742 -1728.811)" fill="#759289"/>
      <path id="Trazado_101856" d="M584.8,5748.7h-.2a11.885,11.885,0,0,1-4.4-4.5c-1.5-2.2-1.9-4-1.3-5.6,1.2-3.3,6.9-4.9,14.1-6.9l1.1-.3a13.752,13.752,0,0,0,10.5-12.7l-1.3-3.3v-2.8l-.6-3.7v-.2l3.6-7.1c0-.1.1-.1.2-.1h0a.215.215,0,0,1,.2.2c.4.8,8.6,19.6,2,28.1-4.8,6.2-12,7.5-17.8,8.6a39.03,39.03,0,0,0-5.7,1.3,3.524,3.524,0,0,0-2.4,2.2c-.7,2.6,2,6.2,2.1,6.2a.3.3,0,0,1,0,.4C584.9,5748.7,584.9,5748.7,584.8,5748.7Zm19-33.4,1.3,3.3v.1a14.27,14.27,0,0,1-10.9,13.2l-1.1.3c-7,1.9-12.6,3.5-13.7,6.6-.5,1.4-.1,3.1,1.3,5.1a9.723,9.723,0,0,0,3,3.4c-.8-1.4-1.8-3.5-1.3-5.4a3.911,3.911,0,0,1,2.7-2.6,37.457,37.457,0,0,1,5.8-1.3c5.7-1,12.7-2.3,17.4-8.4,5.8-7.5-.5-23.9-1.8-27l-3.3,6.5.6,3.6Z" transform="translate(160.742 -1728.811)" fill="#ffcf6e"/>
      <path id="Trazado_101857" d="M594.9,5753.5h-.7a1.58,1.58,0,0,1-1.6-1.6L588,5478.6h13.4l-5,273.4A1.538,1.538,0,0,1,594.9,5753.5Z" transform="translate(160.742 -1728.811)"/>
      <g id="Grupo_1054386" data-name="Grupo 1054386" transform="translate(160.742 -1728.811)">
        <g id="Grupo_54469" clip-path="url(#clip-path)">
          <rect id="Rect치ngulo_5262" width="151.7" height="59.5" transform="translate(517.2 5659.6)" fill="#f2db0c"/>
        </g>
      </g>
      <path id="Trazado_101858" d="M533.5,5696.2l6.3-.7a9.733,9.733,0,0,0,2.3,5.4,6.384,6.384,0,0,0,4.7,1.7,6.651,6.651,0,0,0,4.7-1.5,4.841,4.841,0,0,0,1.6-3.6,3.409,3.409,0,0,0-.7-2.2,5.331,5.331,0,0,0-2.3-1.6c-.8-.3-2.5-.8-5.2-1.6-3.5-1-5.9-2.2-7.3-3.7a10.5,10.5,0,0,1-3-7.5,10.755,10.755,0,0,1,1.4-5.3,9.181,9.181,0,0,1,4-3.8,13.984,13.984,0,0,1,6.3-1.3c4,0,7.1,1,9.1,3.1a11.313,11.313,0,0,1,3.2,8.2l-6.5.3a6.411,6.411,0,0,0-1.8-4.1,6.1,6.1,0,0,0-4.1-1.3,6.743,6.743,0,0,0-4.4,1.3,2.617,2.617,0,0,0-1,2.3,2.9,2.9,0,0,0,1,2.3c.8.8,2.8,1.6,6,2.5a29.814,29.814,0,0,1,7,2.7,10.131,10.131,0,0,1,3.6,3.8,12.122,12.122,0,0,1,1.3,5.9,12.707,12.707,0,0,1-1.5,6,9.218,9.218,0,0,1-4.4,4.1,16.848,16.848,0,0,1-7,1.4c-4.1,0-7.2-1.1-9.4-3.3S533.9,5700.4,533.5,5696.2Z" transform="translate(160.742 -1728.811)"/>
      <path id="Trazado_101859" d="M565.2,5708.3v-37.1h23.9v6.3H571.7v8.2h16.2v6.3H571.7v10.1h18v6.3Z" transform="translate(160.742 -1728.811)"/>
      <path id="Trazado_101860" d="M595.3,5708.3v-37.1h6.3l13.2,24.8v-24.8h6v37.1h-6.5l-13-24.2v24.2Z" transform="translate(160.742 -1728.811)"/>
      <path id="Trazado_101861" d="M656.8,5708.3h-7.1l-2.8-8.4H634l-2.7,8.4h-6.9l12.6-37.1h6.9Zm-12-14.7-4.4-13.8-4.4,13.8Z" transform="translate(160.742 -1728.811)"/>
      <path id="Trazado_101862" d="M622.3,5804.5l-19.9,2.7-.1-17.4,15.5-2.1Z" transform="translate(160.742 -1728.811)" fill="#df1024"/>
      <path id="Trazado_101863" d="M659.1,5789.4l-18,8.8-5.6-16.4,14-6.9Z" transform="translate(160.742 -1728.811)" fill="#df1024"/>
      <path id="Trazado_101864" d="M688.3,5765.2l-14.4,13.9-10.4-13.9,11.3-10.9Z" transform="translate(160.742 -1728.811)" fill="#df1024"/>
      <path id="Trazado_101865" d="M709.1,5733.4l-10.4,17.1-13.6-10.8,8.1-13.4Z" transform="translate(160.742 -1728.811)" fill="#df1024"/>
      <path id="Trazado_101866" d="M717.1,5696.2l-3.3,19.8-16.6-5,2.6-15.4Z" transform="translate(160.742 -1728.811)" fill="#df1024"/>
      <path id="Trazado_101867" d="M713.5,5659.1l3.8,19.7-17.3,1.1-2.9-15.4Z" transform="translate(160.742 -1728.811)" fill="#df1024"/>
      <path id="Trazado_101868" d="M697.8,5626.1l10,17.4-16,6.7-7.8-13.6Z" transform="translate(160.742 -1728.811)" fill="#df1024"/>
      <path id="Trazado_101869" d="M673.3,5599.1l14.1,14.2-13.8,10.6-11-11.1Z" transform="translate(160.742 -1728.811)" fill="#df1024"/>
      <path id="Trazado_101870" d="M641.2,5579.3l17.8,9.2-9.8,14.3-13.9-7.2Z" transform="translate(160.742 -1728.811)" fill="#df1024"/>
      <path id="Trazado_101871" d="M604.2,5570.2l19.8,3.3-5,16.6-15.4-2.6Z" transform="translate(160.742 -1728.811)" fill="#df1024"/>
      <path id="Trazado_101872" d="M565.5,5803.6l19.9,2.7.1-17.4-15.5-2.1Z" transform="translate(160.742 -1728.811)" fill="#df1024"/>
      <path id="Trazado_101873" d="M528.8,5788.6l18,8.8,5.6-16.4-14-6.9Z" transform="translate(160.742 -1728.811)" fill="#df1024"/>
      <path id="Trazado_101874" d="M499.5,5764.4l14.4,13.9,10.4-13.9L513,5753.5Z" transform="translate(160.742 -1728.811)" fill="#df1024"/>
      <path id="Trazado_101875" d="M478.7,5732.6l10.4,17.1,13.6-10.8-8.1-13.4Z" transform="translate(160.742 -1728.811)" fill="#df1024"/>
      <path id="Trazado_101876" d="M470.8,5695.3l3.3,19.8,16.6-5-2.6-15.4Z" transform="translate(160.742 -1728.811)" fill="#df1024"/>
      <path id="Trazado_101877" d="M474.4,5658.2l-3.8,19.7,17.3,1.1,2.9-15.4Z" transform="translate(160.742 -1728.811)" fill="#df1024"/>
      <path id="Trazado_101878" d="M490,5625.2l-10,17.4,16,6.7,7.8-13.6Z" transform="translate(160.742 -1728.811)" fill="#df1024"/>
      <path id="Trazado_101879" d="M514.6,5598.3l-14.1,14.2,13.8,10.6,11-11.1Z" transform="translate(160.742 -1728.811)" fill="#df1024"/>
      <path id="Trazado_101880" d="M546.7,5578.4l-17.8,9.2,9.8,14.3,13.9-7.2Z" transform="translate(160.742 -1728.811)" fill="#df1024"/>
      <path id="Trazado_101881" d="M583.7,5569.4l-19.8,3.3,5,16.6,15.4-2.6Z" transform="translate(160.742 -1728.811)" fill="#df1024"/>
      <path id="Trazado_101882" d="M611.6,5605.7a2.113,2.113,0,0,0-2.6-2c-.2.2.1,1.1.8,1.6A2.041,2.041,0,0,0,611.6,5605.7Z" transform="translate(160.742 -1728.811)" fill="#fff"/>
      <path id="Trazado_101883" d="M578.9,5605.7a2.113,2.113,0,0,1,2.6-2c.2.2-.1,1.1-.8,1.6A1.919,1.919,0,0,1,578.9,5605.7Z" transform="translate(160.742 -1728.811)" fill="#fff"/>
      <path id="Trazado_101884" d="M607.2,5783.1a7.257,7.257,0,0,0-2.4-3.1,19.406,19.406,0,0,0-3.4-2.1,38.855,38.855,0,0,0-7.5-2.5,94.522,94.522,0,0,0-15.9-1.9,72.631,72.631,0,0,1-16.1-3,104.381,104.381,0,0,1-15.2-6,87.9,87.9,0,0,1-26.2-19.5,52.088,52.088,0,0,1-9-13.8,43.722,43.722,0,0,1-2.5-8,33.392,33.392,0,0,1-.5-8.3l2.2.1a34.208,34.208,0,0,0,.6,7.8,49.116,49.116,0,0,0,2.4,7.4,55.328,55.328,0,0,0,8.7,13.1,85.767,85.767,0,0,0,25.3,19.1,95.528,95.528,0,0,0,14.8,6,69.384,69.384,0,0,0,15.6,3,88.365,88.365,0,0,1,16.1,2.5,35.7,35.7,0,0,1,7.6,3.1,20.459,20.459,0,0,1,3.3,2.5,6.738,6.738,0,0,1,2.1,3.6Z" transform="translate(160.742 -1728.811)" fill="#747c40"/>
      <path id="Trazado_101885" d="M582.6,5783.1a7.337,7.337,0,0,1,2.1-3.5,15.948,15.948,0,0,1,3.3-2.5,35.723,35.723,0,0,1,7.6-3.1,88.1,88.1,0,0,1,16.2-2.5,81.913,81.913,0,0,0,30.7-8.2,71.457,71.457,0,0,0,24.8-19.5c6.6-8.3,11.1-18.3,12-28.8l2.2.2a54.152,54.152,0,0,1-12.2,30.2,74.281,74.281,0,0,1-25.8,20,84.5,84.5,0,0,1-31.6,8.2,106.048,106.048,0,0,0-15.9,1.8,32.8,32.8,0,0,0-7.5,2.4,13.62,13.62,0,0,0-3.4,2.1,9.6,9.6,0,0,0-2.5,3.2Z" transform="translate(160.742 -1728.811)" fill="#747c40"/>
      <path id="Trazado_101886" d="M668.2,5715.2s1.9,10.5,11.9,6c0,0,4.6,1.1,5.4-2.8a10.276,10.276,0,0,1,9,1.3s-3.7-8.6-11.4-5.6c0,0-4.3-1.3-5.2,3.2C677.8,5717.2,673.8,5719.5,668.2,5715.2Z" transform="translate(160.742 -1728.811)" fill="#7d9292"/>
      <path id="Trazado_101887" d="M654.8,5741s-4.3,9.8,6.4,11.7c0,0,3.2,3.5,6,.7a10.44,10.44,0,0,1,6.7,6.1s1.8-9.2-6.3-11.1c0,0-2.8-3.5-6.1-.3C661.6,5748.2,657,5747.8,654.8,5741Z" transform="translate(160.742 -1728.811)" fill="#7d9292"/>
      <path id="Trazado_101888" d="M632.5,5754.3s-6.7,8.3,3.1,12.9c0,0,2.1,4.2,5.6,2.3a10.628,10.628,0,0,1,4.9,7.7s4.2-8.4-3.1-12.3c0,0-1.8-4.1-5.8-1.9C637.2,5763,632.8,5761.4,632.5,5754.3Z" transform="translate(160.742 -1728.811)" fill="#7d9292"/>
      <path id="Trazado_101889" d="M522.8,5712.4s-1.9,10.5-11.9,6c0,0-4.6,1.1-5.4-2.8a10.276,10.276,0,0,0-9,1.3s3.7-8.6,11.4-5.6c0,0,4.3-1.3,5.2,3.2C513.1,5714.5,517.1,5716.7,522.8,5712.4Z" transform="translate(160.742 -1728.811)" fill="#7d9292"/>
      <path id="Trazado_101890" d="M534.5,5739.8s4.3,9.8-6.4,11.7c0,0-3.2,3.5-6,.7a10.44,10.44,0,0,0-6.7,6.1s-1.8-9.2,6.3-11.1c0,0,2.8-3.5,6.1-.3C527.7,5746.9,532.3,5746.6,534.5,5739.8Z" transform="translate(160.742 -1728.811)" fill="#7d9292"/>
      <path id="Trazado_101891" d="M559.7,5754.3s6.7,8.3-3.1,12.9c0,0-2.1,4.2-5.6,2.3a10.628,10.628,0,0,0-4.9,7.7s-4.2-8.4,3.1-12.3c0,0,1.8-4.1,5.8-1.9C555.1,5763,559.4,5761.4,559.7,5754.3Z" transform="translate(160.742 -1728.811)" fill="#7d9292"/>
      <path id="Trazado_101892" d="M851.7,4076.1l-2.4-1.7,70.6-99H1291v3H921.4Z" transform="translate(12 -170)" fill="#39a900"/>
      <path id="Trazado_101893" d="M721.7,3903.9l-101-60.7H285v-3H621.5l.4.2,101.4,60.9Z" transform="translate(12 -170)" fill="#39a900"/>
      <path id="Elipse_4109" d="M845.7,4071.5a6.6,6.6,0,1,1-6.6,6.6h0A6.531,6.531,0,0,1,845.7,4071.5Zm0,11.1a4.588,4.588,0,0,0,4.6-4.6,4.526,4.526,0,0,0-4.6-4.6,4.6,4.6,0,0,0,0,9.2Z" transform="translate(12 -170)" fill="#39a900"/>
      <path id="Trazado_101894" d="M1290.9,4316.2H921.3l-.4-.3-140.7-98.6,1.7-2.5,140.3,98.3h368.6v3.1Z" transform="translate(12 -170)" fill="#39a900"/>
      <path id="Elipse_4110" d="M776.7,4206.9a6.6,6.6,0,1,1-6.6,6.6h0A6.594,6.594,0,0,1,776.7,4206.9Zm0,11.2a4.6,4.6,0,1,0-4.6-4.6A4.588,4.588,0,0,0,776.7,4218.1Z" transform="translate(12 -170)" fill="#39a900"/>
      <path id="Elipse_4111" d="M727.4,3898.8a6.6,6.6,0,1,1-6.6,6.6h0A6.531,6.531,0,0,1,727.4,3898.8Zm0,11.1a4.588,4.588,0,0,0,4.6-4.6,4.526,4.526,0,0,0-4.6-4.6,4.588,4.588,0,0,0-4.6,4.6A4.526,4.526,0,0,0,727.4,3909.9Z" transform="translate(12 -170)" fill="#39a900"/>
      <path id="Elipse_4112" d="M16.8,0A16.8,16.8,0,1,1,0,16.8,16.8,16.8,0,0,1,16.8,0Z" transform="translate(926.956 3755.989)" fill="#39a900"/>
      <path id="Trazado_101895" d="M791.1,5510.3h-4v-13.1h-3.8v-2.8l7.8-1.2Z" transform="translate(155.156 -1728.811)" fill="#fff"/>
      <path id="Elipse_4113" d="M16.8,0A16.8,16.8,0,1,1,0,16.8,16.8,16.8,0,0,1,16.8,0Z" transform="translate(927.542 4093.989)" fill="#39a900"/>
      <path id="Trazado_771748" data-name="Trazado 771748" d="M786.3,5836.2h1.8a2.546,2.546,0,0,0,1.9-.6,2.352,2.352,0,0,0,.6-1.7,2.111,2.111,0,0,0-.6-1.6,2.353,2.353,0,0,0-1.7-.6,2.768,2.768,0,0,0-1.6.5,1.749,1.749,0,0,0-.7,1.4h-3.4a3.986,3.986,0,0,1,.7-2.4,5.517,5.517,0,0,1,2-1.7,6.522,6.522,0,0,1,2.9-.6,6.044,6.044,0,0,1,4.2,1.3,4.606,4.606,0,0,1,1.5,3.6,3.6,3.6,0,0,1-.7,2.2,4,4,0,0,1-1.9,1.5,4.54,4.54,0,0,1,2.2,1.5,3.793,3.793,0,0,1,.7,2.4,4.457,4.457,0,0,1-1.7,3.6,6.818,6.818,0,0,1-4.4,1.4,6.391,6.391,0,0,1-4.2-1.3,4.375,4.375,0,0,1-1.6-3.6h3.4a1.99,1.99,0,0,0,.7,1.6,2.793,2.793,0,0,0,1.8.6,2.884,2.884,0,0,0,1.9-.6,2.06,2.06,0,0,0,.7-1.7c0-1.7-.9-2.6-2.8-2.6h-1.8v-2.6Z" transform="translate(155.742 -1728.811)" fill="#fff"/>
      <path id="Elipse_4114" d="M16.8,0A16.8,16.8,0,1,1,0,16.8,16.8,16.8,0,0,1,16.8,0Z" transform="translate(595.742 3621.089)" fill="#39a900"/>
      <path id="Trazado_771749" data-name="Trazado 771749" d="M459.7,5373.4H448v-2.3l5.5-5.9a13.138,13.138,0,0,0,1.7-2.2,3.086,3.086,0,0,0,.5-1.8,2.444,2.444,0,0,0-.6-1.8,2.3,2.3,0,0,0-3.4.1,3.3,3.3,0,0,0-.7,2.1h-3.4a5.3,5.3,0,0,1,.7-2.8,5.777,5.777,0,0,1,2.1-2,6.172,6.172,0,0,1,3.1-.7,5.776,5.776,0,0,1,4.1,1.3,4.466,4.466,0,0,1,1.5,3.6,5.356,5.356,0,0,1-.7,2.6,20.4,20.4,0,0,1-2.2,3.1l-3.9,4.1h7.3v2.6Z" transform="translate(158.742 -1728.811)" fill="#fff"/>
      <path id="Rect치ngulo_5263" d="M963.9,3912.2H1285a5.911,5.911,0,0,1,5.9,5.9v58.8H958v-58.8a5.848,5.848,0,0,1,5.9-5.9Z" transform="translate(12 -170)" fill="#eaf6e4"/>
      <path id="Rect치ngulo_5264" d="M963.9,4248.3H1285a5.911,5.911,0,0,1,5.9,5.9V4313H958v-58.8a5.911,5.911,0,0,1,5.9-5.9Z" transform="translate(12 -170)" fill="#eaf6e4"/>
      <path id="Rect치ngulo_5265" d="M290.9,3776H569.3a5.911,5.911,0,0,1,5.9,5.9v58.8H285v-58.8a5.848,5.848,0,0,1,5.9-5.9Z" transform="translate(12 -170)" fill="#eaf6e4"/>
      <path id="Trazado_771750" data-name="Trazado 771750" d="M998.9,3932.8h-4.5v3.1h5.3v1.9H992v-11.4h7.6v1.9h-5.3v2.7h4.5v1.8Z" transform="translate(12 -170)" fill="#12263f"/>
      <path id="Trazado_771751" data-name="Trazado 771751" d="M1003.2,3937.7h-2.3v-12h2.3Z" transform="translate(12 -170)" fill="#12263f"/>
      <path id="Trazado_771752" data-name="Trazado 771752" d="M1016.7,3933.6a4.964,4.964,0,0,1-.9,3.1,2.851,2.851,0,0,1-2.4,1.2,2.724,2.724,0,0,1-2.1-.9v4H1009v-11.7h2.1l.1.8a2.512,2.512,0,0,1,2.1-1,2.73,2.73,0,0,1,2.4,1.2,5.788,5.788,0,0,1,.9,3.2v.1Zm-2.3-.2a3.007,3.007,0,0,0-.4-1.8,1.426,1.426,0,0,0-1.2-.6,1.645,1.645,0,0,0-1.5.8v3.5a1.476,1.476,0,0,0,1.5.8C1013.9,3936,1014.4,3935.2,1014.4,3933.4Z" transform="translate(12 -170)" fill="#12263f"/>
      <path id="Trazado_771753" data-name="Trazado 771753" d="M1018.1,3927.1a1.135,1.135,0,0,1,.3-.8,1.5,1.5,0,0,1,1.8,0,1.217,1.217,0,0,1,0,1.6,1.5,1.5,0,0,1-1.8,0A1.136,1.136,0,0,1,1018.1,3927.1Zm2.4,10.6h-2.3v-8.5h2.3Z" transform="translate(12 -170)" fill="#12263f"/>
      <path id="Trazado_771754" data-name="Trazado 771754" d="M1024.4,3929.2l.1,1a2.766,2.766,0,0,1,2.4-1.1,2.481,2.481,0,0,1,2,.8,3.808,3.808,0,0,1,.7,2.4v5.5h-2.3v-5.4a1.327,1.327,0,0,0-.3-1,1.493,1.493,0,0,0-1-.3,1.6,1.6,0,0,0-1.4.8v6h-2.3v-8.5h2.1Zm4.5-3.4a2.456,2.456,0,0,1-.5,1.5,1.613,1.613,0,0,1-1.3.6.749.749,0,0,1-.5-.1.865.865,0,0,1-.6-.3,1.627,1.627,0,0,1-.6-.3c-.1,0-.2-.1-.4-.1s-.3.1-.5.2a.846.846,0,0,0-.2.6l-1.3-.1a2.456,2.456,0,0,1,.5-1.5,1.613,1.613,0,0,1,1.3-.6c.2,0,.3,0,.4.1a1.741,1.741,0,0,1,.7.3c.3.2.5.2.6.3h.4c.2,0,.3-.1.5-.2s.2-.3.2-.6Z" transform="translate(12 -170)" fill="#12263f"/>
      <path id="Trazado_771755" data-name="Trazado 771755" d="M1031,3933.4a5.089,5.089,0,0,1,.5-2.2,2.941,2.941,0,0,1,1.4-1.5,3.645,3.645,0,0,1,2.1-.5,3.857,3.857,0,0,1,2.8,1,4.262,4.262,0,0,1,1.2,2.8v.6a4.505,4.505,0,0,1-1.1,3.1,4.1,4.1,0,0,1-5.8,0,4.59,4.59,0,0,1-1.1-3.2Zm2.2.2a2.969,2.969,0,0,0,.5,1.8,1.486,1.486,0,0,0,1.3.6,1.612,1.612,0,0,0,1.3-.6,3.439,3.439,0,0,0,.5-2,2.969,2.969,0,0,0-.5-1.8,1.708,1.708,0,0,0-2.6,0A3.439,3.439,0,0,0,1033.2,3933.6Zm2.2-7.9h2.5l-2.2,2.4h-1.8Z" transform="translate(12 -170)" fill="#12263f"/>
      <path id="Trazado_771756" data-name="Trazado 771756" d="M1042.4,3929.2l.1,1a2.766,2.766,0,0,1,2.4-1.1,2.481,2.481,0,0,1,2,.8,3.808,3.808,0,0,1,.7,2.4v5.5h-2.3v-5.4a1.327,1.327,0,0,0-.3-1,1.493,1.493,0,0,0-1-.3,1.6,1.6,0,0,0-1.4.8v6h-2.3v-8.5h2.1Z" transform="translate(12 -170)" fill="#12263f"/>
      <path id="Trazado_771757" data-name="Trazado 771757" d="M1049.9,3940.6l-1.2-.6.3-.5a4.485,4.485,0,0,0,.5-1.9v-1.8h1.9v1.6a5.838,5.838,0,0,1-.4,1.8A7.57,7.57,0,0,1,1049.9,3940.6Z" transform="translate(12 -170)" fill="#12263f"/>
      <path id="Trazado_771758" data-name="Trazado 771758" d="M1061.5,3930.5c-.2,0-.5-.1-.7-.1a1.875,1.875,0,0,0-1.9,1.2v6h-1.4v-8.5h1.4v1a2.11,2.11,0,0,1,2-1.1c.3,0,.5,0,.6.1Z" transform="translate(12 -170)" fill="#12263f"/>
      <path id="Trazado_771759" data-name="Trazado 771759" d="M1066.2,3937.9a3.927,3.927,0,0,1-2.8-1.1,4.248,4.248,0,0,1-1.1-3v-.3a5.089,5.089,0,0,1,.5-2.2,3.84,3.84,0,0,1,1.3-1.5,3.488,3.488,0,0,1,4.5.5,4.772,4.772,0,0,1,.9,3.1v.6h-5.7a3.221,3.221,0,0,0,.7,2,2.5,2.5,0,0,0,1.8.8,2.769,2.769,0,0,0,1.3-.3,2.361,2.361,0,0,0,.9-.8l.9.7A3.943,3.943,0,0,1,1066.2,3937.9Zm-.2-7.6a2.035,2.035,0,0,0-1.5.6,2.978,2.978,0,0,0-.7,1.8h4.2v-.1a2.352,2.352,0,0,0-.6-1.7A1.678,1.678,0,0,0,1066,3930.3Z" transform="translate(12 -170)" fill="#12263f"/>
      <path id="Trazado_771760" data-name="Trazado 771760" d="M1078.3,3933.6a4.964,4.964,0,0,1-.9,3.1,2.851,2.851,0,0,1-2.4,1.2,2.965,2.965,0,0,1-2.4-1v4.1h-1.4v-11.7h1.3l.1.9a3.1,3.1,0,0,1,2.5-1.1,3.042,3.042,0,0,1,2.4,1.1,5.075,5.075,0,0,1,.9,3.2v.2Zm-1.5-.2a3.921,3.921,0,0,0-.6-2.3,1.88,1.88,0,0,0-1.7-.8,2.2,2.2,0,0,0-2,1.2v4a2.1,2.1,0,0,0,2,1.2,2.289,2.289,0,0,0,1.7-.8A4.4,4.4,0,0,0,1076.8,3933.4Z" transform="translate(12 -170)" fill="#12263f"/>
      <path id="Trazado_771761" data-name="Trazado 771761" d="M1084.2,3930.5c-.2,0-.5-.1-.7-.1a1.875,1.875,0,0,0-1.9,1.2v6h-1.4v-8.5h1.4v1a2.11,2.11,0,0,1,2-1.1c.3,0,.5,0,.6.1Z" transform="translate(12 -170)" fill="#12263f"/>
      <path id="Trazado_771762" data-name="Trazado 771762" d="M1088.9,3937.9a3.927,3.927,0,0,1-2.8-1.1,4.248,4.248,0,0,1-1.1-3v-.3a5.089,5.089,0,0,1,.5-2.2,3.84,3.84,0,0,1,1.3-1.5,3.488,3.488,0,0,1,4.5.5,4.772,4.772,0,0,1,.9,3.1v.6h-5.7a3.221,3.221,0,0,0,.7,2,2.5,2.5,0,0,0,1.8.8,2.769,2.769,0,0,0,1.3-.3,2.361,2.361,0,0,0,.9-.8l.9.7A3.943,3.943,0,0,1,1088.9,3937.9Zm-.2-7.6a2.035,2.035,0,0,0-1.5.6,2.978,2.978,0,0,0-.7,1.8h4.2v-.1a2.352,2.352,0,0,0-.6-1.7A1.678,1.678,0,0,0,1088.7,3930.3Z" transform="translate(12 -170)" fill="#12263f"/>
      <path id="Trazado_771763" data-name="Trazado 771763" d="M1098.8,3935.5a.975.975,0,0,0-.4-.9,5.721,5.721,0,0,0-1.5-.6,5.553,5.553,0,0,1-1.7-.6,8.757,8.757,0,0,1-1-.8,2.016,2.016,0,0,1-.3-1.1,2.272,2.272,0,0,1,.9-1.8,3.232,3.232,0,0,1,2.2-.7,3.334,3.334,0,0,1,2.3.7,2.323,2.323,0,0,1,.9,1.9h-1.5a1.389,1.389,0,0,0-.5-1,1.844,1.844,0,0,0-1.3-.4,2.133,2.133,0,0,0-1.2.3.975.975,0,0,0-.4.9.909.909,0,0,0,.4.8,6.4,6.4,0,0,0,1.5.5,18.814,18.814,0,0,1,1.8.6,2.721,2.721,0,0,1,1,.8,2.133,2.133,0,0,1,.3,1.2,2.019,2.019,0,0,1-.9,1.8,3.612,3.612,0,0,1-2.4.7,3.427,3.427,0,0,1-1.8-.4,2.94,2.94,0,0,1-1.2-1,2.3,2.3,0,0,1-.4-1.4h1.4a1.425,1.425,0,0,0,.6,1.2,2.116,2.116,0,0,0,1.4.4,2.5,2.5,0,0,0,1.3-.3A1.019,1.019,0,0,0,1098.8,3935.5Z" transform="translate(12 -170)" fill="#12263f"/>
      <path id="Trazado_771764" data-name="Trazado 771764" d="M1105.6,3937.9a3.927,3.927,0,0,1-2.8-1.1,4.248,4.248,0,0,1-1.1-3v-.3a5.089,5.089,0,0,1,.5-2.2,3.84,3.84,0,0,1,1.3-1.5,3.488,3.488,0,0,1,4.5.5,4.772,4.772,0,0,1,.9,3.1v.6h-5.7a3.221,3.221,0,0,0,.7,2,2.5,2.5,0,0,0,1.8.8,2.769,2.769,0,0,0,1.3-.3,2.361,2.361,0,0,0,.9-.8l.9.7A3.943,3.943,0,0,1,1105.6,3937.9Zm-.2-7.6a2.035,2.035,0,0,0-1.5.6,2.978,2.978,0,0,0-.7,1.8h4.2v-.1a2.352,2.352,0,0,0-.6-1.7A1.678,1.678,0,0,0,1105.4,3930.3Z" transform="translate(12 -170)" fill="#12263f"/>
      <path id="Trazado_771765" data-name="Trazado 771765" d="M1112,3929.2v1.1a3.034,3.034,0,0,1,2.5-1.2q2.7,0,2.7,3v5.6h-1.4v-5.6a1.954,1.954,0,0,0-.4-1.4,1.7,1.7,0,0,0-1.3-.4,1.594,1.594,0,0,0-1.2.4,2,2,0,0,0-.8,1v6h-1.4v-8.5h1.3Z" transform="translate(12 -170)" fill="#12263f"/>
      <path id="Trazado_771766" data-name="Trazado 771766" d="M1121.4,3927.2v2h1.6v1.1h-1.6v5.2a1.884,1.884,0,0,0,.2.8.779.779,0,0,0,.7.3,1.95,1.95,0,0,0,.7-.1v1.2a5.154,5.154,0,0,1-1.1.2,2.035,2.035,0,0,1-1.5-.6,2.175,2.175,0,0,1-.5-1.7v-5.2h-1.5v-1.1h1.5v-2h1.5Z" transform="translate(12 -170)" fill="#12263f"/>
      <path id="Trazado_771767" data-name="Trazado 771767" d="M1129.9,3937.7a2,2,0,0,1-.2-.9,3.25,3.25,0,0,1-2.4,1,3.139,3.139,0,0,1-2.1-.7,2.5,2.5,0,0,1-.8-1.8,2.393,2.393,0,0,1,1-2.1,4.654,4.654,0,0,1,2.8-.7h1.4v-.7a1.656,1.656,0,0,0-.5-1.2,1.7,1.7,0,0,0-1.3-.4,2.011,2.011,0,0,0-1.3.4,1.383,1.383,0,0,0-.5.9h-1.5a1.921,1.921,0,0,1,.4-1.2,2.73,2.73,0,0,1,1.2-.9,4.672,4.672,0,0,1,1.7-.3,3.334,3.334,0,0,1,2.3.7,2.876,2.876,0,0,1,.9,2v3.9a5.038,5.038,0,0,0,.3,1.9v.1Zm-2.4-1.1a2.011,2.011,0,0,0,1.3-.4,2.581,2.581,0,0,0,.9-.9v-1.7h-1.1c-1.8,0-2.7.5-2.7,1.6a1.433,1.433,0,0,0,.5,1.1A1.611,1.611,0,0,0,1127.5,3936.6Z" transform="translate(12 -170)" fill="#12263f"/>
      <path id="Trazado_771768" data-name="Trazado 771768" d="M1135.3,3927.2v2h1.6v1.1h-1.6v5.2a1.884,1.884,0,0,0,.2.8.779.779,0,0,0,.7.3,1.95,1.95,0,0,0,.7-.1v1.2a5.154,5.154,0,0,1-1.1.2,2.035,2.035,0,0,1-1.5-.6,2.175,2.175,0,0,1-.5-1.7v-5.2h-1.5v-1.1h1.5v-2h1.5Z" transform="translate(12 -170)" fill="#12263f"/>
      <path id="Trazado_771769" data-name="Trazado 771769" d="M1138.6,3927a1.423,1.423,0,0,1,.2-.6c.1-.2.4-.2.6-.2a1.073,1.073,0,0,1,.6.2,1,1,0,0,1,0,1.2c-.1.2-.4.2-.6.2a1.073,1.073,0,0,1-.6-.2A1.423,1.423,0,0,1,1138.6,3927Zm1.5,10.7h-1.4v-8.5h1.4Z" transform="translate(12 -170)" fill="#12263f"/>
      <path id="Trazado_771770" data-name="Trazado 771770" d="M1145.2,3935.7l2.1-6.5h1.5l-3,8.5h-1.1l-3.1-8.5h1.5Z" transform="translate(12 -170)" fill="#12263f"/>
      <path id="Trazado_771771" data-name="Trazado 771771" d="M1149.7,3933.4a5.089,5.089,0,0,1,.5-2.2,2.941,2.941,0,0,1,1.4-1.5,3.324,3.324,0,0,1,2-.5,3.489,3.489,0,0,1,2.8,1.2,4.77,4.77,0,0,1,1.1,3.2v.1a5.089,5.089,0,0,1-.5,2.2,2.941,2.941,0,0,1-1.4,1.5,4.551,4.551,0,0,1-2,.5,3.631,3.631,0,0,1-2.8-1.2,4.77,4.77,0,0,1-1.1-3.2Zm1.5.2a3.506,3.506,0,0,0,.7,2.3,1.964,1.964,0,0,0,1.7.9,2.272,2.272,0,0,0,1.8-.9,4.265,4.265,0,0,0,.6-2.4,3.506,3.506,0,0,0-.7-2.3,2.019,2.019,0,0,0-1.8-.9,1.965,1.965,0,0,0-1.7.9A4.048,4.048,0,0,0,1151.2,3933.6Z" transform="translate(12 -170)" fill="#12263f"/>
      <path id="Trazado_771772" data-name="Trazado 771772" d="M1162.8,3933.4a4.964,4.964,0,0,1,.9-3.1,2.851,2.851,0,0,1,2.4-1.2,2.965,2.965,0,0,1,2.4,1v-4.4h1.4v12h-1.3l-.1-.9a3.043,3.043,0,0,1-2.4,1.1,2.851,2.851,0,0,1-2.4-1.2,4.964,4.964,0,0,1-.9-3.1Zm1.5.2a3.4,3.4,0,0,0,.6,2.2,1.943,1.943,0,0,0,1.6.8,2.1,2.1,0,0,0,2-1.2v-3.9a2.1,2.1,0,0,0-2-1.2,2.136,2.136,0,0,0-1.7.8A5.508,5.508,0,0,0,1164.3,3933.6Z" transform="translate(12 -170)" fill="#12263f"/>
      <path id="Trazado_771773" data-name="Trazado 771773" d="M1175.7,3937.9a3.927,3.927,0,0,1-2.8-1.1,4.248,4.248,0,0,1-1.1-3v-.3a5.089,5.089,0,0,1,.5-2.2,3.84,3.84,0,0,1,1.3-1.5,3.488,3.488,0,0,1,4.5.5,4.772,4.772,0,0,1,.9,3.1v.6h-5.7a3.221,3.221,0,0,0,.7,2,2.5,2.5,0,0,0,1.8.8,2.769,2.769,0,0,0,1.3-.3,2.361,2.361,0,0,0,.9-.8l.9.7A3.943,3.943,0,0,1,1175.7,3937.9Zm-.2-7.6a2.035,2.035,0,0,0-1.5.6,2.978,2.978,0,0,0-.7,1.8h4.2v-.1a2.352,2.352,0,0,0-.6-1.7A1.678,1.678,0,0,0,1175.5,3930.3Z" transform="translate(12 -170)" fill="#12263f"/>
      <path id="Trazado_771774" data-name="Trazado 771774" d="M1182.2,3937.7h-1.4v-12h1.4Z" transform="translate(12 -170)" fill="#12263f"/>
      <path id="Trazado_771775" data-name="Trazado 771775" d="M1193.4,3935.5a.975.975,0,0,0-.4-.9,5.721,5.721,0,0,0-1.5-.6,5.553,5.553,0,0,1-1.7-.6,8.757,8.757,0,0,1-1-.8,2.016,2.016,0,0,1-.3-1.1,2.272,2.272,0,0,1,.9-1.8,3.232,3.232,0,0,1,2.2-.7,3.334,3.334,0,0,1,2.3.7,2.323,2.323,0,0,1,.9,1.9h-1.5a1.389,1.389,0,0,0-.5-1,1.844,1.844,0,0,0-1.3-.4,2.133,2.133,0,0,0-1.2.3.975.975,0,0,0-.4.9.909.909,0,0,0,.4.8,6.4,6.4,0,0,0,1.5.5,18.814,18.814,0,0,1,1.8.6,2.721,2.721,0,0,1,1,.8,2.133,2.133,0,0,1,.3,1.2,2.019,2.019,0,0,1-.9,1.8,3.612,3.612,0,0,1-2.4.7,3.427,3.427,0,0,1-1.8-.4,2.94,2.94,0,0,1-1.2-1,2.3,2.3,0,0,1-.4-1.4h1.4a1.425,1.425,0,0,0,.6,1.2,2.116,2.116,0,0,0,1.4.4,2.5,2.5,0,0,0,1.3-.3A.823.823,0,0,0,1193.4,3935.5Z" transform="translate(12 -170)" fill="#12263f"/>
      <path id="Trazado_771776" data-name="Trazado 771776" d="M1200.3,3937.9a3.927,3.927,0,0,1-2.8-1.1,4.248,4.248,0,0,1-1.1-3v-.3a5.089,5.089,0,0,1,.5-2.2,3.84,3.84,0,0,1,1.3-1.5,3.488,3.488,0,0,1,4.5.5,4.772,4.772,0,0,1,.9,3.1v.6h-5.7a3.221,3.221,0,0,0,.7,2,2.5,2.5,0,0,0,1.8.8,2.769,2.769,0,0,0,1.3-.3,2.361,2.361,0,0,0,.9-.8l.9.7A3.943,3.943,0,0,1,1200.3,3937.9Zm-.2-7.6a2.035,2.035,0,0,0-1.5.6,2.978,2.978,0,0,0-.7,1.8h4.2v-.1a2.352,2.352,0,0,0-.6-1.7A1.678,1.678,0,0,0,1200.1,3930.3Z" transform="translate(12 -170)" fill="#12263f"/>
      <path id="Trazado_771777" data-name="Trazado 771777" d="M1208.6,3936.7a2.389,2.389,0,0,0,1.4-.5,1.425,1.425,0,0,0,.6-1.2h1.4a2.653,2.653,0,0,1-.5,1.4,2.94,2.94,0,0,1-1.2,1,3.552,3.552,0,0,1-4.3-.8,5.089,5.089,0,0,1-1-3.2v-.2a5.089,5.089,0,0,1,.5-2.2,3.736,3.736,0,0,1,1.3-1.5,3.324,3.324,0,0,1,2-.5,3.584,3.584,0,0,1,2.4.9,3.03,3.03,0,0,1,1,2.2h-1.4a1.613,1.613,0,0,0-.6-1.3,1.742,1.742,0,0,0-1.4-.5,2.136,2.136,0,0,0-1.7.8,3.715,3.715,0,0,0-.6,2.3v.3a3.4,3.4,0,0,0,.6,2.2A1.541,1.541,0,0,0,1208.6,3936.7Z" transform="translate(12 -170)" fill="#12263f"/>
      <path id="Trazado_771778" data-name="Trazado 771778" d="M1215.6,3927.2v2h1.6v1.1h-1.6v5.2a1.884,1.884,0,0,0,.2.8.779.779,0,0,0,.7.3,1.95,1.95,0,0,0,.7-.1v1.2a5.154,5.154,0,0,1-1.1.2,2.035,2.035,0,0,1-1.5-.6,2.175,2.175,0,0,1-.5-1.7v-5.2h-1.5v-1.1h1.5v-2h1.5Z" transform="translate(12 -170)" fill="#12263f"/>
      <path id="Trazado_771779" data-name="Trazado 771779" d="M1218.3,3933.4a5.089,5.089,0,0,1,.5-2.2,2.941,2.941,0,0,1,1.4-1.5,3.324,3.324,0,0,1,2-.5,3.489,3.489,0,0,1,2.8,1.2,4.77,4.77,0,0,1,1.1,3.2v.1a5.089,5.089,0,0,1-.5,2.2,2.941,2.941,0,0,1-1.4,1.5,4.551,4.551,0,0,1-2,.5,3.631,3.631,0,0,1-2.8-1.2,4.77,4.77,0,0,1-1.1-3.2Zm1.5.2a3.506,3.506,0,0,0,.7,2.3,1.964,1.964,0,0,0,1.7.9,2.272,2.272,0,0,0,1.8-.9,4.265,4.265,0,0,0,.6-2.4,3.506,3.506,0,0,0-.7-2.3,2.019,2.019,0,0,0-1.8-.9,1.965,1.965,0,0,0-1.7.9A4.048,4.048,0,0,0,1219.8,3933.6Z" transform="translate(12 -170)" fill="#12263f"/>
      <path id="Trazado_771780" data-name="Trazado 771780" d="M1231.9,3930.5c-.2,0-.5-.1-.7-.1a1.875,1.875,0,0,0-1.9,1.2v6h-1.4v-8.5h1.4v1a2.11,2.11,0,0,1,2-1.1c.3,0,.5,0,.6.1Z" transform="translate(12 -170)" fill="#12263f"/>
      <path id="Trazado_771781" data-name="Trazado 771781" d="M992.1,3951a1.422,1.422,0,0,1,.2-.6c.1-.2.4-.2.6-.2a1.073,1.073,0,0,1,.6.2,1,1,0,0,1,0,1.2c-.1.2-.4.2-.6.2a1.073,1.073,0,0,1-.6-.2A1.423,1.423,0,0,1,992.1,3951Zm1.6,10.7h-1.4v-8.5h1.4Z" transform="translate(12 -170)" fill="#12263f"/>
      <path id="Trazado_771782" data-name="Trazado 771782" d="M997.3,3953.2v1.1a3.034,3.034,0,0,1,2.5-1.2q2.7,0,2.7,3v5.6h-1.4v-5.6a1.954,1.954,0,0,0-.4-1.4,1.7,1.7,0,0,0-1.3-.4,1.6,1.6,0,0,0-1.2.4,2,2,0,0,0-.8,1v6H996v-8.5h1.3Z" transform="translate(12 -170)" fill="#12263f"/>
      <path id="Trazado_771783" data-name="Trazado 771783" d="M1004.5,3957.4a4.964,4.964,0,0,1,.9-3.1,2.851,2.851,0,0,1,2.4-1.2,2.965,2.965,0,0,1,2.4,1v-4.4h1.4v12h-1.3l-.1-.9a3.043,3.043,0,0,1-2.4,1.1,2.851,2.851,0,0,1-2.4-1.2,4.964,4.964,0,0,1-.9-3.1v-.2Zm1.4.2a3.4,3.4,0,0,0,.6,2.2,1.943,1.943,0,0,0,1.6.8,2.1,2.1,0,0,0,2-1.2v-3.9a2.1,2.1,0,0,0-2-1.2,2.136,2.136,0,0,0-1.7.8A5.508,5.508,0,0,0,1005.9,3957.6Z" transform="translate(12 -170)" fill="#12263f"/>
      <path id="Trazado_771784" data-name="Trazado 771784" d="M1019,3960.9a3.04,3.04,0,0,1-2.5,1,2.865,2.865,0,0,1-2.1-.8,3.174,3.174,0,0,1-.7-2.3v-5.5h1.4v5.5c0,1.3.5,1.9,1.6,1.9a2.2,2.2,0,0,0,2.2-1.2v-6.1h1.4v8.5h-1.4Z" transform="translate(12 -170)" fill="#12263f"/>
      <path id="Trazado_771785" data-name="Trazado 771785" d="M1027.6,3959.5a.975.975,0,0,0-.4-.9,5.721,5.721,0,0,0-1.5-.6,5.555,5.555,0,0,1-1.7-.6,8.747,8.747,0,0,1-1-.8,2.016,2.016,0,0,1-.3-1.1,2.272,2.272,0,0,1,.9-1.8,3.232,3.232,0,0,1,2.2-.7,3.334,3.334,0,0,1,2.3.7,2.323,2.323,0,0,1,.9,1.9h-1.5a1.389,1.389,0,0,0-.5-1,1.844,1.844,0,0,0-1.3-.4,2.133,2.133,0,0,0-1.2.3.975.975,0,0,0-.4.9.909.909,0,0,0,.4.8,6.4,6.4,0,0,0,1.5.5,18.814,18.814,0,0,1,1.8.6,2.721,2.721,0,0,1,1,.8,2.133,2.133,0,0,1,.3,1.2,2.019,2.019,0,0,1-.9,1.8,3.612,3.612,0,0,1-2.4.7,3.427,3.427,0,0,1-1.8-.4,2.94,2.94,0,0,1-1.2-1,2.3,2.3,0,0,1-.4-1.4h1.4a1.425,1.425,0,0,0,.6,1.2,2.116,2.116,0,0,0,1.4.4,2.5,2.5,0,0,0,1.3-.3A1.019,1.019,0,0,0,1027.6,3959.5Z" transform="translate(12 -170)" fill="#12263f"/>
      <path id="Trazado_771786" data-name="Trazado 771786" d="M1032.9,3951.2v2h1.6v1.1h-1.6v5.2a1.884,1.884,0,0,0,.2.8.779.779,0,0,0,.7.3,1.95,1.95,0,0,0,.7-.1v1.2a5.154,5.154,0,0,1-1.1.2,2.035,2.035,0,0,1-1.5-.6,2.175,2.175,0,0,1-.5-1.7v-5.2h-1.5v-1.1h1.5v-2h1.5Z" transform="translate(12 -170)" fill="#12263f"/>
      <path id="Trazado_771787" data-name="Trazado 771787" d="M1040.2,3954.5c-.2,0-.5-.1-.7-.1a1.875,1.875,0,0,0-1.9,1.2v6h-1.4v-8.5h1.4v1a2.11,2.11,0,0,1,2-1.1c.3,0,.5,0,.6.1Z" transform="translate(12 -170)" fill="#12263f"/>
      <path id="Trazado_771788" data-name="Trazado 771788" d="M1041.5,3951a1.423,1.423,0,0,1,.2-.6c.1-.2.4-.2.6-.2a1.073,1.073,0,0,1,.6.2,1,1,0,0,1,0,1.2c-.1.2-.4.2-.6.2a1.073,1.073,0,0,1-.6-.2A1.423,1.423,0,0,1,1041.5,3951Zm1.6,10.7h-1.4v-8.5h1.4Z" transform="translate(12 -170)" fill="#12263f"/>
      <path id="Trazado_771789" data-name="Trazado 771789" d="M1050.6,3961.7a2,2,0,0,1-.2-.9,3.25,3.25,0,0,1-2.4,1,3.139,3.139,0,0,1-2.1-.7,2.5,2.5,0,0,1-.8-1.8,2.393,2.393,0,0,1,1-2.1,4.654,4.654,0,0,1,2.8-.7h1.4v-.7a1.656,1.656,0,0,0-.5-1.2,1.7,1.7,0,0,0-1.3-.4,2.011,2.011,0,0,0-1.3.4,1.383,1.383,0,0,0-.5.9h-1.5a1.921,1.921,0,0,1,.4-1.2,2.73,2.73,0,0,1,1.2-.9,4.672,4.672,0,0,1,1.7-.3,3.334,3.334,0,0,1,2.3.7,2.876,2.876,0,0,1,.9,2v3.9a5.038,5.038,0,0,0,.3,1.9v.1Zm-2.4-1.1a2.011,2.011,0,0,0,1.3-.4,2.581,2.581,0,0,0,.9-.9v-1.7h-1.1c-1.8,0-2.7.5-2.7,1.6a1.433,1.433,0,0,0,.5,1.1A2.02,2.02,0,0,0,1048.2,3960.6Z" transform="translate(12 -170)" fill="#12263f"/>
      <path id="Trazado_771790" data-name="Trazado 771790" d="M1055.7,3961.7h-1.4v-12h1.4Z" transform="translate(12 -170)" fill="#12263f"/>
      <path id="Trazado_771791" data-name="Trazado 771791" d="M1058,3960.9a1.073,1.073,0,0,1,.2-.6,1.165,1.165,0,0,1,.7-.2,1.447,1.447,0,0,1,.7.2.735.735,0,0,1,.2.6,1.423,1.423,0,0,1-.2.6.844.844,0,0,1-.7.2,1.447,1.447,0,0,1-.7-.2C1058,3961.4,1058,3961.2,1058,3960.9Z" transform="translate(12 -170)" fill="#12263f"/>
      <path id="Trazado_771792" data-name="Trazado 771792" d="M315.9,3796.1h-4.5v3.1h5.3v1.9H309v-11.4h7.6v1.9h-5.3v2.7h4.5v1.8Z" transform="translate(12 -170)" fill="#12263f"/>
      <path id="Trazado_771793" data-name="Trazado 771793" d="M320.2,3801H318v-12h2.3v12Z" transform="translate(12 -170)" fill="#12263f"/>
      <path id="Trazado_771794" data-name="Trazado 771794" d="M329.6,3799.3a1.493,1.493,0,0,0,1-.3.975.975,0,0,0,.4-.9h2.1a3.022,3.022,0,0,1-.5,1.6,2.85,2.85,0,0,1-1.3,1.1,3.424,3.424,0,0,1-1.8.4,3.7,3.7,0,0,1-2.9-1.2,4.555,4.555,0,0,1-1-3.2v-.1a4.454,4.454,0,0,1,1-3.1,3.56,3.56,0,0,1,2.9-1.2,3.258,3.258,0,0,1,3.5,3.3h-2a1.5,1.5,0,0,0-.4-1.1,1.284,1.284,0,0,0-1-.4,1.425,1.425,0,0,0-1.2.6,3.161,3.161,0,0,0-.4,1.9v.2a3.161,3.161,0,0,0,.4,1.9A1.346,1.346,0,0,0,329.6,3799.3Z" transform="translate(12 -170)" fill="#12263f"/>
      <path id="Trazado_771795" data-name="Trazado 771795" d="M339.3,3801a1.884,1.884,0,0,1-.2-.8,2.723,2.723,0,0,1-2.1.9,3.139,3.139,0,0,1-2.1-.7,2.5,2.5,0,0,1-.8-1.8,2.393,2.393,0,0,1,1-2.1,4.789,4.789,0,0,1,2.9-.7h1v-.5a1.222,1.222,0,0,0-.3-.9,1.268,1.268,0,0,0-.9-.4,1.223,1.223,0,0,0-.9.3.984.984,0,0,0-.3.8h-2.3a2.654,2.654,0,0,1,.5-1.4,3.449,3.449,0,0,1,1.3-1,5.849,5.849,0,0,1,1.9-.4,3.937,3.937,0,0,1,2.5.8,2.792,2.792,0,0,1,.9,2.2v3.7a4.179,4.179,0,0,0,.3,1.8v.1h-2.4Zm-1.8-1.6a2.924,2.924,0,0,0,.9-.2.9.9,0,0,0,.6-.6v-1.5h-.8q-1.65,0-1.8,1.2v.1a.908.908,0,0,0,.3.7A.984.984,0,0,0,337.5,3799.4Z" transform="translate(12 -170)" fill="#12263f"/>
      <path id="Trazado_771796" data-name="Trazado 771796" d="M342.7,3796.7a4.772,4.772,0,0,1,.9-3.1,2.851,2.851,0,0,1,2.4-1.2,2.518,2.518,0,0,1,2,.9V3789h2.3v12h-2l-.1-.9a2.8,2.8,0,0,1-2.2,1.1,2.851,2.851,0,0,1-2.4-1.2A5.389,5.389,0,0,1,342.7,3796.7Zm2.2.2a3.007,3.007,0,0,0,.4,1.8,1.426,1.426,0,0,0,1.2.6,1.551,1.551,0,0,0,1.5-.9V3795a1.551,1.551,0,0,0-1.5-.9C345.5,3794.2,344.9,3795.1,344.9,3796.9Z" transform="translate(12 -170)" fill="#12263f"/>
      <path id="Trazado_771797" data-name="Trazado 771797" d="M357.1,3800.1a2.765,2.765,0,0,1-2.3,1,2.865,2.865,0,0,1-2.1-.8,3.174,3.174,0,0,1-.7-2.3v-5.5h2.3v5.5c0,.9.4,1.3,1.2,1.3a1.7,1.7,0,0,0,1.6-.8v-6h2.3v8.5h-2.1Z" transform="translate(12 -170)" fill="#12263f"/>
      <path id="Trazado_771798" data-name="Trazado 771798" d="M364.5,3799.3a1.493,1.493,0,0,0,1-.3.975.975,0,0,0,.4-.9H368a3.022,3.022,0,0,1-.5,1.6,2.85,2.85,0,0,1-1.3,1.1,3.424,3.424,0,0,1-1.8.4,3.7,3.7,0,0,1-2.9-1.2,4.555,4.555,0,0,1-1-3.2v-.1a4.454,4.454,0,0,1,1-3.1,3.56,3.56,0,0,1,2.9-1.2,3.258,3.258,0,0,1,3.5,3.3h-2.1a1.5,1.5,0,0,0-.4-1.1,1.284,1.284,0,0,0-1-.4,1.425,1.425,0,0,0-1.2.6,3.161,3.161,0,0,0-.4,1.9v.2a3.161,3.161,0,0,0,.4,1.9A1.536,1.536,0,0,0,364.5,3799.3Z" transform="translate(12 -170)" fill="#12263f"/>
      <path id="Trazado_771799" data-name="Trazado 771799" d="M373.2,3801.2a4.426,4.426,0,0,1-3-1.1,4.071,4.071,0,0,1-1.2-3v-.2a5.932,5.932,0,0,1,.5-2.3,2.941,2.941,0,0,1,1.4-1.5,4.648,4.648,0,0,1,2.1-.5,3.386,3.386,0,0,1,2.7,1.1,4.79,4.79,0,0,1,1,3.1v.9h-5.4a1.858,1.858,0,0,0,.7,1.3,2.168,2.168,0,0,0,1.4.5,2.385,2.385,0,0,0,2-.9l1.1,1.2a2.587,2.587,0,0,1-1.4,1.1A5.817,5.817,0,0,1,373.2,3801.2Zm-.2-7a1.606,1.606,0,0,0-1.1.5,1.728,1.728,0,0,0-.5,1.3h3.1v-.2a1.594,1.594,0,0,0-.4-1.2A1.5,1.5,0,0,0,373,3794.2Z" transform="translate(12 -170)" fill="#12263f"/>
      <path id="Trazado_771800" data-name="Trazado 771800" d="M377.6,3796.7a5.09,5.09,0,0,1,.5-2.2,2.941,2.941,0,0,1,1.4-1.5,3.645,3.645,0,0,1,2.1-.5,3.857,3.857,0,0,1,2.8,1,4.262,4.262,0,0,1,1.2,2.8v.6a4.505,4.505,0,0,1-1.1,3.1,4.1,4.1,0,0,1-5.8,0,4.591,4.591,0,0,1-1.1-3.2Zm2.3.2a2.97,2.97,0,0,0,.5,1.8,1.486,1.486,0,0,0,1.3.6,1.612,1.612,0,0,0,1.3-.6,3.439,3.439,0,0,0,.5-2,2.97,2.97,0,0,0-.5-1.8,1.708,1.708,0,0,0-2.6,0A2.826,2.826,0,0,0,379.9,3796.9Z" transform="translate(12 -170)" fill="#12263f"/>
      <path id="Trazado_771801" data-name="Trazado 771801" d="M387.2,3803.3l-.8-.6a4.563,4.563,0,0,0,.8-2.1v-1.3h1.4v1.1a3.167,3.167,0,0,1-.4,1.6A6.424,6.424,0,0,1,387.2,3803.3Z" transform="translate(12 -170)" fill="#12263f"/>
      <path id="Trazado_771802" data-name="Trazado 771802" d="M399.6,3801a2,2,0,0,1-.2-.9,3.25,3.25,0,0,1-2.4,1,3.139,3.139,0,0,1-2.1-.7,2.5,2.5,0,0,1-.8-1.8,2.393,2.393,0,0,1,1-2.1,4.654,4.654,0,0,1,2.8-.7h1.4v-.7a1.656,1.656,0,0,0-.5-1.2,1.7,1.7,0,0,0-1.3-.4,2.011,2.011,0,0,0-1.3.4,1.383,1.383,0,0,0-.5.9h-1.5a1.922,1.922,0,0,1,.4-1.2,2.73,2.73,0,0,1,1.2-.9,4.672,4.672,0,0,1,1.7-.3,3.334,3.334,0,0,1,2.3.7,2.876,2.876,0,0,1,.9,2v3.9a5.04,5.04,0,0,0,.3,1.9v.1Zm-2.4-1.1a2.011,2.011,0,0,0,1.3-.4,2.58,2.58,0,0,0,.9-.9v-1.7h-1.1c-1.8,0-2.7.5-2.7,1.6a1.433,1.433,0,0,0,.5,1.1A1.61,1.61,0,0,0,397.2,3799.9Z" transform="translate(12 -170)" fill="#12263f"/>
      <path id="Trazado_771803" data-name="Trazado 771803" d="M408,3798.8a.975.975,0,0,0-.4-.9,5.719,5.719,0,0,0-1.5-.6,5.555,5.555,0,0,1-1.7-.6,8.741,8.741,0,0,1-1-.8,2.016,2.016,0,0,1-.3-1.1,2.272,2.272,0,0,1,.9-1.8,3.232,3.232,0,0,1,2.2-.7,3.334,3.334,0,0,1,2.3.7,2.323,2.323,0,0,1,.9,1.9h-1.5a1.389,1.389,0,0,0-.5-1,1.844,1.844,0,0,0-1.3-.4,2.133,2.133,0,0,0-1.2.3.975.975,0,0,0-.4.9.909.909,0,0,0,.4.8,6.4,6.4,0,0,0,1.5.5,18.807,18.807,0,0,1,1.8.6,2.722,2.722,0,0,1,1,.8,2.132,2.132,0,0,1,.3,1.2,2.019,2.019,0,0,1-.9,1.8,3.612,3.612,0,0,1-2.4.7,3.426,3.426,0,0,1-1.8-.4,2.94,2.94,0,0,1-1.2-1,2.3,2.3,0,0,1-.4-1.4h1.4a1.425,1.425,0,0,0,.6,1.2,2.116,2.116,0,0,0,1.4.4,2.5,2.5,0,0,0,1.3-.3A1.019,1.019,0,0,0,408,3798.8Z" transform="translate(12 -170)" fill="#12263f"/>
      <path id="Trazado_771804" data-name="Trazado 771804" d="M410.9,3796.7a5.09,5.09,0,0,1,.5-2.2,2.941,2.941,0,0,1,1.4-1.5,3.324,3.324,0,0,1,2-.5,3.489,3.489,0,0,1,2.8,1.2,4.771,4.771,0,0,1,1.1,3.2v.1a5.09,5.09,0,0,1-.5,2.2,2.941,2.941,0,0,1-1.4,1.5,4.551,4.551,0,0,1-2,.5,3.631,3.631,0,0,1-2.8-1.2,4.771,4.771,0,0,1-1.1-3.2Zm1.5.2a3.506,3.506,0,0,0,.7,2.3,1.964,1.964,0,0,0,1.7.9,2.272,2.272,0,0,0,1.8-.9,4.265,4.265,0,0,0,.6-2.4,3.506,3.506,0,0,0-.7-2.3,2.019,2.019,0,0,0-1.8-.9,1.965,1.965,0,0,0-1.7.9A4.047,4.047,0,0,0,412.4,3796.9Z" transform="translate(12 -170)" fill="#12263f"/>
      <path id="Trazado_771805" data-name="Trazado 771805" d="M423.8,3800a2.389,2.389,0,0,0,1.4-.5,1.425,1.425,0,0,0,.6-1.2h1.4a2.654,2.654,0,0,1-.5,1.4,2.94,2.94,0,0,1-1.2,1,3.553,3.553,0,0,1-4.3-.8,5.089,5.089,0,0,1-1-3.2v-.2a5.09,5.09,0,0,1,.5-2.2,3.736,3.736,0,0,1,1.3-1.5,3.324,3.324,0,0,1,2-.5,3.584,3.584,0,0,1,2.4.9,3.03,3.03,0,0,1,1,2.2H426a1.613,1.613,0,0,0-.6-1.3,1.742,1.742,0,0,0-1.4-.5,2.136,2.136,0,0,0-1.7.8,3.715,3.715,0,0,0-.6,2.3v.3a3.4,3.4,0,0,0,.6,2.2A1.541,1.541,0,0,0,423.8,3800Z" transform="translate(12 -170)" fill="#12263f"/>
      <path id="Trazado_771806" data-name="Trazado 771806" d="M428.8,3790.3a1.423,1.423,0,0,1,.2-.6c.1-.2.4-.2.6-.2a1.073,1.073,0,0,1,.6.2,1,1,0,0,1,0,1.2c-.1.2-.4.2-.6.2a1.073,1.073,0,0,1-.6-.2A1.423,1.423,0,0,1,428.8,3790.3Zm1.6,10.7H429v-8.5h1.4Z" transform="translate(12 -170)" fill="#12263f"/>
      <path id="Trazado_771807" data-name="Trazado 771807" d="M437.9,3801a2,2,0,0,1-.2-.9,3.25,3.25,0,0,1-2.4,1,3.139,3.139,0,0,1-2.1-.7,2.5,2.5,0,0,1-.8-1.8,2.393,2.393,0,0,1,1-2.1,4.654,4.654,0,0,1,2.8-.7h1.4v-.7a1.656,1.656,0,0,0-.5-1.2,1.7,1.7,0,0,0-1.3-.4,2.011,2.011,0,0,0-1.3.4,1.383,1.383,0,0,0-.5.9h-1.5a1.922,1.922,0,0,1,.4-1.2,2.73,2.73,0,0,1,1.2-.9,4.672,4.672,0,0,1,1.7-.3,3.334,3.334,0,0,1,2.3.7,2.876,2.876,0,0,1,.9,2v3.9a5.04,5.04,0,0,0,.3,1.9v.1Zm-2.4-1.1a2.011,2.011,0,0,0,1.3-.4,2.58,2.58,0,0,0,.9-.9v-1.7h-1.1c-1.8,0-2.7.5-2.7,1.6a1.433,1.433,0,0,0,.5,1.1A1.61,1.61,0,0,0,435.5,3799.9Z" transform="translate(12 -170)" fill="#12263f"/>
      <path id="Trazado_771808" data-name="Trazado 771808" d="M441,3796.7a4.964,4.964,0,0,1,.9-3.1,2.851,2.851,0,0,1,2.4-1.2,2.965,2.965,0,0,1,2.4,1V3789h1.4v12h-1.3l-.1-.9a3.043,3.043,0,0,1-2.4,1.1,2.851,2.851,0,0,1-2.4-1.2,4.964,4.964,0,0,1-.9-3.1Zm1.5.2a3.4,3.4,0,0,0,.6,2.2,1.943,1.943,0,0,0,1.6.8,2.1,2.1,0,0,0,2-1.2v-3.9a2.1,2.1,0,0,0-2-1.2,2.136,2.136,0,0,0-1.7.8A5.51,5.51,0,0,0,442.5,3796.9Z" transform="translate(12 -170)" fill="#12263f"/>
      <path id="Trazado_771809" data-name="Trazado 771809" d="M450,3796.7a5.09,5.09,0,0,1,.5-2.2,2.941,2.941,0,0,1,1.4-1.5,3.324,3.324,0,0,1,2-.5,3.489,3.489,0,0,1,2.8,1.2,4.771,4.771,0,0,1,1.1,3.2v.1a5.09,5.09,0,0,1-.5,2.2,2.941,2.941,0,0,1-1.4,1.5,4.551,4.551,0,0,1-2,.5,3.631,3.631,0,0,1-2.8-1.2,4.771,4.771,0,0,1-1.1-3.2Zm1.5.2a3.506,3.506,0,0,0,.7,2.3,1.964,1.964,0,0,0,1.7.9,2.272,2.272,0,0,0,1.8-.9,4.265,4.265,0,0,0,.6-2.4,3.506,3.506,0,0,0-.7-2.3,2.019,2.019,0,0,0-1.8-.9,1.965,1.965,0,0,0-1.7.9A4.047,4.047,0,0,0,451.5,3796.9Z" transform="translate(12 -170)" fill="#12263f"/>
      <path id="Trazado_771810" data-name="Trazado 771810" d="M468.7,3801a2,2,0,0,1-.2-.9,3.25,3.25,0,0,1-2.4,1,3.139,3.139,0,0,1-2.1-.7,2.5,2.5,0,0,1-.8-1.8,2.393,2.393,0,0,1,1-2.1,4.654,4.654,0,0,1,2.8-.7h1.4v-.7a1.656,1.656,0,0,0-.5-1.2,1.7,1.7,0,0,0-1.3-.4,2.011,2.011,0,0,0-1.3.4,1.383,1.383,0,0,0-.5.9h-1.5a1.922,1.922,0,0,1,.4-1.2,2.73,2.73,0,0,1,1.2-.9,4.672,4.672,0,0,1,1.7-.3,3.334,3.334,0,0,1,2.3.7,2.876,2.876,0,0,1,.9,2v3.9a5.04,5.04,0,0,0,.3,1.9v.1Zm-2.4-1.1a2.011,2.011,0,0,0,1.3-.4,2.58,2.58,0,0,0,.9-.9v-1.7h-1.1c-1.8,0-2.7.5-2.7,1.6a1.433,1.433,0,0,0,.5,1.1A1.8,1.8,0,0,0,466.3,3799.9Z" transform="translate(12 -170)" fill="#12263f"/>
      <path id="Trazado_771811" data-name="Trazado 771811" d="M473.8,3801h-1.4v-12h1.4Z" transform="translate(12 -170)" fill="#12263f"/>
      <path id="Trazado_771812" data-name="Trazado 771812" d="M479.7,3796.7a4.964,4.964,0,0,1,.9-3.1,2.851,2.851,0,0,1,2.4-1.2,2.965,2.965,0,0,1,2.4,1V3789h1.4v12h-1.3l-.1-.9a3.043,3.043,0,0,1-2.4,1.1,2.851,2.851,0,0,1-2.4-1.2,4.964,4.964,0,0,1-.9-3.1Zm1.4.2a3.4,3.4,0,0,0,.6,2.2,1.943,1.943,0,0,0,1.6.8,2.1,2.1,0,0,0,2-1.2v-3.9a2.1,2.1,0,0,0-2-1.2,2.136,2.136,0,0,0-1.7.8A5.509,5.509,0,0,0,481.1,3796.9Z" transform="translate(12 -170)" fill="#12263f"/>
      <path id="Trazado_771813" data-name="Trazado 771813" d="M492.6,3801.2a3.927,3.927,0,0,1-2.8-1.1,4.249,4.249,0,0,1-1.1-3v-.3a5.09,5.09,0,0,1,.5-2.2,3.84,3.84,0,0,1,1.3-1.5,3.488,3.488,0,0,1,4.5.5,4.772,4.772,0,0,1,.9,3.1v.6h-5.7a3.221,3.221,0,0,0,.7,2,2.5,2.5,0,0,0,1.8.8,2.769,2.769,0,0,0,1.3-.3,2.36,2.36,0,0,0,.9-.8l.9.7A3.942,3.942,0,0,1,492.6,3801.2Zm-.2-7.6a2.035,2.035,0,0,0-1.5.6,2.979,2.979,0,0,0-.7,1.8h4.2v-.1a2.352,2.352,0,0,0-.6-1.7A1.678,1.678,0,0,0,492.4,3793.6Z" transform="translate(12 -170)" fill="#12263f"/>
      <path id="Trazado_771814" data-name="Trazado 771814" d="M312.5,3824a2.389,2.389,0,0,0,1.4-.5,1.425,1.425,0,0,0,.6-1.2h1.4a2.654,2.654,0,0,1-.5,1.4,2.94,2.94,0,0,1-1.2,1,3.553,3.553,0,0,1-4.3-.8,5.089,5.089,0,0,1-1-3.2v-.2a5.09,5.09,0,0,1,.5-2.2,3.736,3.736,0,0,1,1.3-1.5,3.324,3.324,0,0,1,2-.5,3.584,3.584,0,0,1,2.4.9,3.03,3.03,0,0,1,1,2.2h-1.4a1.613,1.613,0,0,0-.6-1.3,1.742,1.742,0,0,0-1.4-.5,2.136,2.136,0,0,0-1.7.8,3.715,3.715,0,0,0-.6,2.3v.3a3.4,3.4,0,0,0,.6,2.2A1.449,1.449,0,0,0,312.5,3824Z" transform="translate(12 -170)" fill="#12263f"/>
      <path id="Trazado_771815" data-name="Trazado 771815" d="M317.1,3820.7a5.09,5.09,0,0,1,.5-2.2,2.941,2.941,0,0,1,1.4-1.5,3.324,3.324,0,0,1,2-.5,3.489,3.489,0,0,1,2.8,1.2,4.771,4.771,0,0,1,1.1,3.2v.1a5.09,5.09,0,0,1-.5,2.2,2.941,2.941,0,0,1-1.4,1.5,4.551,4.551,0,0,1-2,.5,3.631,3.631,0,0,1-2.8-1.2,4.771,4.771,0,0,1-1.1-3.2Zm1.4.2a3.506,3.506,0,0,0,.7,2.3,1.964,1.964,0,0,0,1.7.9,2.272,2.272,0,0,0,1.8-.9,4.265,4.265,0,0,0,.6-2.4,3.506,3.506,0,0,0-.7-2.3,2.019,2.019,0,0,0-1.8-.9,1.965,1.965,0,0,0-1.7.9A4.047,4.047,0,0,0,318.5,3820.9Z" transform="translate(12 -170)" fill="#12263f"/>
      <path id="Trazado_771816" data-name="Trazado 771816" d="M328,3816.5v.9a3.25,3.25,0,0,1,2.5-1.1,2.394,2.394,0,0,1,2.4,1.4,3.568,3.568,0,0,1,1.1-1,4.193,4.193,0,0,1,1.6-.4c1.9,0,2.8,1,2.8,2.9v5.7H337v-5.6a1.954,1.954,0,0,0-.4-1.4,1.809,1.809,0,0,0-1.4-.4,1.9,1.9,0,0,0-1.3.5,1.613,1.613,0,0,0-.6,1.3v5.6h-1.5v-5.5a1.591,1.591,0,0,0-1.8-1.8,1.875,1.875,0,0,0-1.9,1.2v6.2h-1.4v-8.5H328Z" transform="translate(12 -170)" fill="#12263f"/>
      <path id="Trazado_771817" data-name="Trazado 771817" d="M344.1,3825.2a3.927,3.927,0,0,1-2.8-1.1,4.249,4.249,0,0,1-1.1-3v-.3a5.09,5.09,0,0,1,.5-2.2,3.84,3.84,0,0,1,1.3-1.5,3.488,3.488,0,0,1,4.5.5,4.772,4.772,0,0,1,.9,3.1v.6h-5.7a3.221,3.221,0,0,0,.7,2,2.5,2.5,0,0,0,1.8.8,2.769,2.769,0,0,0,1.3-.3,2.36,2.36,0,0,0,.9-.8l.9.7A3.942,3.942,0,0,1,344.1,3825.2Zm-.2-7.6a2.035,2.035,0,0,0-1.5.6,2.979,2.979,0,0,0-.7,1.8h4.2v-.1a2.352,2.352,0,0,0-.6-1.7A1.678,1.678,0,0,0,343.9,3817.6Z" transform="translate(12 -170)" fill="#12263f"/>
      <path id="Trazado_771818" data-name="Trazado 771818" d="M353.2,3817.8c-.2,0-.5-.1-.7-.1a1.875,1.875,0,0,0-1.9,1.2v6h-1.4v-8.5h1.4v1a2.111,2.111,0,0,1,2-1.1c.3,0,.5,0,.6.1Z" transform="translate(12 -170)" fill="#12263f"/>
      <path id="Trazado_771819" data-name="Trazado 771819" d="M357.8,3824a2.389,2.389,0,0,0,1.4-.5,1.425,1.425,0,0,0,.6-1.2h1.4a2.654,2.654,0,0,1-.5,1.4,2.94,2.94,0,0,1-1.2,1,3.553,3.553,0,0,1-4.3-.8,5.089,5.089,0,0,1-1-3.2v-.2a5.09,5.09,0,0,1,.5-2.2,3.736,3.736,0,0,1,1.3-1.5,3.324,3.324,0,0,1,2-.5,3.584,3.584,0,0,1,2.4.9,3.03,3.03,0,0,1,1,2.2H360a1.613,1.613,0,0,0-.6-1.3,1.742,1.742,0,0,0-1.4-.5,2.136,2.136,0,0,0-1.7.8,3.715,3.715,0,0,0-.6,2.3v.3a3.4,3.4,0,0,0,.6,2.2C356.4,3823.7,357,3824,357.8,3824Z" transform="translate(12 -170)" fill="#12263f"/>
      <path id="Trazado_771820" data-name="Trazado 771820" d="M362.7,3814.3a1.423,1.423,0,0,1,.2-.6c.1-.2.4-.2.6-.2a1.073,1.073,0,0,1,.6.2,1,1,0,0,1,0,1.2c-.1.2-.4.2-.6.2a1.073,1.073,0,0,1-.6-.2A1.422,1.422,0,0,1,362.7,3814.3Zm1.6,10.7h-1.4v-8.5h1.4Z" transform="translate(12 -170)" fill="#12263f"/>
      <path id="Trazado_771821" data-name="Trazado 771821" d="M366.2,3820.7a5.09,5.09,0,0,1,.5-2.2,2.941,2.941,0,0,1,1.4-1.5,3.324,3.324,0,0,1,2-.5,3.489,3.489,0,0,1,2.8,1.2,4.771,4.771,0,0,1,1.1,3.2v.1a5.09,5.09,0,0,1-.5,2.2,2.941,2.941,0,0,1-1.4,1.5,4.551,4.551,0,0,1-2,.5,3.631,3.631,0,0,1-2.8-1.2,4.771,4.771,0,0,1-1.1-3.2Zm1.5.2a3.506,3.506,0,0,0,.7,2.3,1.964,1.964,0,0,0,1.7.9,2.272,2.272,0,0,0,1.8-.9,4.265,4.265,0,0,0,.6-2.4,3.506,3.506,0,0,0-.7-2.3,2.019,2.019,0,0,0-1.8-.9,1.965,1.965,0,0,0-1.7.9A4.047,4.047,0,0,0,367.7,3820.9Z" transform="translate(12 -170)" fill="#12263f"/>
      <path id="Trazado_771822" data-name="Trazado 771822" d="M382.5,3822.9l2-6.3H386l-3.4,9.8a2.691,2.691,0,0,1-2.5,2.1h-.3l-.5-.1v-1.2h.4a1.609,1.609,0,0,0,1.1-.3,3.475,3.475,0,0,0,.7-1.1l.3-.9-3-8.4h1.6Z" transform="translate(12 -170)" fill="#12263f"/>
      <path id="Trazado_771823" data-name="Trazado 771823" d="M396.2,3822.8a.975.975,0,0,0-.4-.9,5.719,5.719,0,0,0-1.5-.6,5.555,5.555,0,0,1-1.7-.6,8.741,8.741,0,0,1-1-.8,2.016,2.016,0,0,1-.3-1.1,2.272,2.272,0,0,1,.9-1.8,3.232,3.232,0,0,1,2.2-.7,3.334,3.334,0,0,1,2.3.7,2.323,2.323,0,0,1,.9,1.9h-1.5a1.389,1.389,0,0,0-.5-1,1.844,1.844,0,0,0-1.3-.4,2.133,2.133,0,0,0-1.2.3.975.975,0,0,0-.4.9.909.909,0,0,0,.4.8,6.4,6.4,0,0,0,1.5.5,18.807,18.807,0,0,1,1.8.6,2.722,2.722,0,0,1,1,.8,2.132,2.132,0,0,1,.3,1.2,2.019,2.019,0,0,1-.9,1.8,3.612,3.612,0,0,1-2.4.7,3.426,3.426,0,0,1-1.8-.4,2.94,2.94,0,0,1-1.2-1,2.3,2.3,0,0,1-.4-1.4h1.4a1.425,1.425,0,0,0,.6,1.2,2.116,2.116,0,0,0,1.4.4,2.5,2.5,0,0,0,1.3-.3A1.019,1.019,0,0,0,396.2,3822.8Z" transform="translate(12 -170)" fill="#12263f"/>
      <path id="Trazado_771824" data-name="Trazado 771824" d="M403,3825.2a3.927,3.927,0,0,1-2.8-1.1,4.249,4.249,0,0,1-1.1-3v-.3a5.09,5.09,0,0,1,.5-2.2,3.84,3.84,0,0,1,1.3-1.5,3.488,3.488,0,0,1,4.5.5,4.772,4.772,0,0,1,.9,3.1v.6h-5.7a3.221,3.221,0,0,0,.7,2,2.5,2.5,0,0,0,1.8.8,2.769,2.769,0,0,0,1.3-.3,2.36,2.36,0,0,0,.9-.8l.9.7A3.942,3.942,0,0,1,403,3825.2Zm-.2-7.6a2.035,2.035,0,0,0-1.5.6,2.979,2.979,0,0,0-.7,1.8h4.2v-.1a2.352,2.352,0,0,0-.6-1.7A1.678,1.678,0,0,0,402.8,3817.6Z" transform="translate(12 -170)" fill="#12263f"/>
      <path id="Trazado_771825" data-name="Trazado 771825" d="M412,3817.8c-.2,0-.5-.1-.7-.1a1.875,1.875,0,0,0-1.9,1.2v6H408v-8.5h1.4v1a2.111,2.111,0,0,1,2-1.1c.3,0,.5,0,.6.1Z" transform="translate(12 -170)" fill="#12263f"/>
      <path id="Trazado_771826" data-name="Trazado 771826" d="M416.3,3823l2.1-6.5h1.5l-3,8.5h-1.1l-3.1-8.5h1.5Z" transform="translate(12 -170)" fill="#12263f"/>
      <path id="Trazado_771827" data-name="Trazado 771827" d="M421.3,3814.3a1.423,1.423,0,0,1,.2-.6c.1-.2.4-.2.6-.2a1.073,1.073,0,0,1,.6.2,1,1,0,0,1,0,1.2c-.1.2-.4.2-.6.2a1.073,1.073,0,0,1-.6-.2A.735.735,0,0,1,421.3,3814.3Zm1.5,10.7h-1.4v-8.5h1.4Z" transform="translate(12 -170)" fill="#12263f"/>
      <path id="Trazado_771828" data-name="Trazado 771828" d="M428.5,3824a2.389,2.389,0,0,0,1.4-.5,1.425,1.425,0,0,0,.6-1.2h1.4a2.654,2.654,0,0,1-.5,1.4,2.94,2.94,0,0,1-1.2,1,3.553,3.553,0,0,1-4.3-.8,5.089,5.089,0,0,1-1-3.2v-.2a5.09,5.09,0,0,1,.5-2.2,3.736,3.736,0,0,1,1.3-1.5,3.324,3.324,0,0,1,2-.5,3.584,3.584,0,0,1,2.4.9,3.03,3.03,0,0,1,1,2.2h-1.4a1.613,1.613,0,0,0-.6-1.3,1.742,1.742,0,0,0-1.4-.5,2.136,2.136,0,0,0-1.7.8,3.715,3.715,0,0,0-.6,2.3v.3a3.4,3.4,0,0,0,.6,2.2A1.541,1.541,0,0,0,428.5,3824Z" transform="translate(12 -170)" fill="#12263f"/>
      <path id="Trazado_771829" data-name="Trazado 771829" d="M433.5,3814.3a1.423,1.423,0,0,1,.2-.6c.1-.2.4-.2.6-.2a1.073,1.073,0,0,1,.6.2,1,1,0,0,1,0,1.2c-.1.2-.4.2-.6.2a1.073,1.073,0,0,1-.6-.2A1.423,1.423,0,0,1,433.5,3814.3Zm1.6,10.7h-1.4v-8.5h1.4Z" transform="translate(12 -170)" fill="#12263f"/>
      <path id="Trazado_771830" data-name="Trazado 771830" d="M437,3820.7a5.09,5.09,0,0,1,.5-2.2,2.941,2.941,0,0,1,1.4-1.5,3.324,3.324,0,0,1,2-.5,3.489,3.489,0,0,1,2.8,1.2,4.771,4.771,0,0,1,1.1,3.2v.1a5.09,5.09,0,0,1-.5,2.2,2.941,2.941,0,0,1-1.4,1.5,4.551,4.551,0,0,1-2,.5,3.631,3.631,0,0,1-2.8-1.2,4.771,4.771,0,0,1-1.1-3.2Zm1.5.2a3.506,3.506,0,0,0,.7,2.3,1.964,1.964,0,0,0,1.7.9,2.272,2.272,0,0,0,1.8-.9,4.265,4.265,0,0,0,.6-2.4,3.506,3.506,0,0,0-.7-2.3,2.019,2.019,0,0,0-1.8-.9,1.965,1.965,0,0,0-1.7.9A4.047,4.047,0,0,0,438.5,3820.9Z" transform="translate(12 -170)" fill="#12263f"/>
      <path id="Trazado_771831" data-name="Trazado 771831" d="M451.5,3822.8a.975.975,0,0,0-.4-.9,5.719,5.719,0,0,0-1.5-.6,5.555,5.555,0,0,1-1.7-.6,8.741,8.741,0,0,1-1-.8,2.016,2.016,0,0,1-.3-1.1,2.272,2.272,0,0,1,.9-1.8,3.232,3.232,0,0,1,2.2-.7,3.334,3.334,0,0,1,2.3.7,2.323,2.323,0,0,1,.9,1.9h-1.5a1.389,1.389,0,0,0-.5-1,1.844,1.844,0,0,0-1.3-.4,2.133,2.133,0,0,0-1.2.3.975.975,0,0,0-.4.9.909.909,0,0,0,.4.8,6.4,6.4,0,0,0,1.5.5,18.807,18.807,0,0,1,1.8.6,2.722,2.722,0,0,1,1,.8,2.132,2.132,0,0,1,.3,1.2,2.019,2.019,0,0,1-.9,1.8,3.612,3.612,0,0,1-2.4.7,3.426,3.426,0,0,1-1.8-.4,2.94,2.94,0,0,1-1.2-1,2.3,2.3,0,0,1-.4-1.4h1.4a1.425,1.425,0,0,0,.6,1.2,2.116,2.116,0,0,0,1.4.4,2.5,2.5,0,0,0,1.3-.3A1.019,1.019,0,0,0,451.5,3822.8Z" transform="translate(12 -170)" fill="#12263f"/>
      <path id="Trazado_771832" data-name="Trazado 771832" d="M454.8,3824.2a1.073,1.073,0,0,1,.2-.6,1.165,1.165,0,0,1,.7-.2,1.447,1.447,0,0,1,.7.2.735.735,0,0,1,.2.6,1.423,1.423,0,0,1-.2.6.844.844,0,0,1-.7.2,1.447,1.447,0,0,1-.7-.2C454.8,3824.7,454.8,3824.5,454.8,3824.2Z" transform="translate(12 -170)" fill="#12263f"/>
      <path id="Trazado_771833" data-name="Trazado 771833" d="M986.9,4269.4h-4.5v3.1h5.3v1.9H980V4263h7.6v1.9h-5.3v2.7h4.5v1.8Z" transform="translate(12 -170)" fill="#12263f"/>
      <path id="Trazado_771834" data-name="Trazado 771834" d="M991.2,4274.3H989v-12h2.3v12Z" transform="translate(12 -170)" fill="#12263f"/>
      <path id="Trazado_771835" data-name="Trazado 771835" d="M1000.6,4272.7a1.494,1.494,0,0,0,1-.3.975.975,0,0,0,.4-.9h2.1a3.022,3.022,0,0,1-.5,1.6,2.852,2.852,0,0,1-1.3,1.1,3.426,3.426,0,0,1-1.8.4,3.7,3.7,0,0,1-2.9-1.2,4.554,4.554,0,0,1-1-3.2v-.1a4.455,4.455,0,0,1,1-3.1,3.561,3.561,0,0,1,2.9-1.2,3.258,3.258,0,0,1,3.5,3.3h-2.1a1.5,1.5,0,0,0-.4-1.1,1.284,1.284,0,0,0-1-.4,1.426,1.426,0,0,0-1.2.6,3.161,3.161,0,0,0-.4,1.9v.2a3.16,3.16,0,0,0,.4,1.9A1.536,1.536,0,0,0,1000.6,4272.7Z" transform="translate(12 -170)" fill="#12263f"/>
      <path id="Trazado_771836" data-name="Trazado 771836" d="M1010.3,4274.3a1.885,1.885,0,0,1-.2-.8,2.723,2.723,0,0,1-2.1.9,3.139,3.139,0,0,1-2.1-.7,2.5,2.5,0,0,1-.8-1.8,2.393,2.393,0,0,1,1-2.1,4.789,4.789,0,0,1,2.9-.7h1v-.5a1.222,1.222,0,0,0-.3-.9,1.267,1.267,0,0,0-.9-.4,1.224,1.224,0,0,0-.9.3.984.984,0,0,0-.3.8h-2.3a2.654,2.654,0,0,1,.5-1.4,3.447,3.447,0,0,1,1.3-1,5.842,5.842,0,0,1,1.9-.4,3.936,3.936,0,0,1,2.5.8,2.792,2.792,0,0,1,.9,2.2v3.7a4.177,4.177,0,0,0,.3,1.8v.1h-2.4Zm-1.8-1.5a2.918,2.918,0,0,0,.9-.2.9.9,0,0,0,.6-.6v-1.5h-.8q-1.65,0-1.8,1.2v.1a.909.909,0,0,0,.3.7A.984.984,0,0,0,1008.5,4272.8Z" transform="translate(12 -170)" fill="#12263f"/>
      <path id="Trazado_771837" data-name="Trazado 771837" d="M1014.6,4274.3v-6.8h-1.3v-1.7h1.3v-.7a3.114,3.114,0,0,1,.8-2.2,3.2,3.2,0,0,1,2.3-.8,5.155,5.155,0,0,1,1.1.2v1.7c-.2,0-.4-.1-.7-.1-.8,0-1.3.4-1.3,1.2v.7h1.7v1.7h-1.7v6.8h-2.2Z" transform="translate(12 -170)" fill="#12263f"/>
      <path id="Trazado_771838" data-name="Trazado 771838" d="M1023.5,4274.5a4.426,4.426,0,0,1-3-1.1,4.07,4.07,0,0,1-1.2-3v-.2a5.931,5.931,0,0,1,.5-2.3,2.941,2.941,0,0,1,1.4-1.5,4.651,4.651,0,0,1,2.1-.5,3.386,3.386,0,0,1,2.7,1.1,4.79,4.79,0,0,1,1,3.1v.9h-5.4a1.857,1.857,0,0,0,.7,1.3,2.169,2.169,0,0,0,1.4.5,2.384,2.384,0,0,0,2-.9l1.1,1.2a2.588,2.588,0,0,1-1.4,1.1A5.817,5.817,0,0,1,1023.5,4274.5Zm-.3-7a1.607,1.607,0,0,0-1.1.5,1.727,1.727,0,0,0-.5,1.3h3.1v-.2a1.6,1.6,0,0,0-.4-1.2A1.825,1.825,0,0,0,1023.2,4267.5Zm.2-5.2h2.5l-2.2,2.4h-1.8Z" transform="translate(12 -170)" fill="#12263f"/>
      <path id="Trazado_771839" data-name="Trazado 771839" d="M1028.8,4277.2l-1.2-.6.3-.5a4.485,4.485,0,0,0,.5-1.9v-1.8h1.9v1.6a5.833,5.833,0,0,1-.4,1.8A7.592,7.592,0,0,1,1028.8,4277.2Z" transform="translate(12 -170)" fill="#12263f"/>
      <path id="Trazado_771840" data-name="Trazado 771840" d="M1037.9,4274.3h-1.4v-12h1.4Z" transform="translate(12 -170)" fill="#12263f"/>
      <path id="Trazado_771841" data-name="Trazado 771841" d="M1040.2,4263.6a1.422,1.422,0,0,1,.2-.6c.1-.2.4-.2.6-.2a1.071,1.071,0,0,1,.6.2,1,1,0,0,1,0,1.2c-.1.2-.4.2-.6.2a1.071,1.071,0,0,1-.6-.2A.847.847,0,0,1,1040.2,4263.6Zm1.6,10.7h-1.4v-8.5h1.4Z" transform="translate(12 -170)" fill="#12263f"/>
      <path id="Trazado_771842" data-name="Trazado 771842" d="M1043.7,4270a4.773,4.773,0,0,1,.9-3.1,3.132,3.132,0,0,1,2.4-1.2,3.042,3.042,0,0,1,2.4,1.1l.1-.9h1.3v8.2a3.253,3.253,0,0,1-1,2.6,3.738,3.738,0,0,1-2.6.9,3.925,3.925,0,0,1-1.8-.4,2.849,2.849,0,0,1-1.3-1.1l.8-.9a2.7,2.7,0,0,0,2.3,1.1,1.969,1.969,0,0,0,1.6-.6,2.352,2.352,0,0,0,.6-1.7v-.7a2.964,2.964,0,0,1-2.4,1,2.85,2.85,0,0,1-2.4-1.2A4.415,4.415,0,0,1,1043.7,4270Zm1.5.2a3.4,3.4,0,0,0,.6,2.2,1.943,1.943,0,0,0,1.6.8,2.1,2.1,0,0,0,2-1.2v-3.9a2.1,2.1,0,0,0-2-1.2,1.816,1.816,0,0,0-1.6.8A4.4,4.4,0,0,0,1045.2,4270.2Z" transform="translate(12 -170)" fill="#12263f"/>
      <path id="Trazado_771843" data-name="Trazado 771843" d="M1058.3,4274.3a2,2,0,0,1-.2-.9,3.249,3.249,0,0,1-2.4,1,3.139,3.139,0,0,1-2.1-.7,2.5,2.5,0,0,1-.8-1.8,2.393,2.393,0,0,1,1-2.1,4.654,4.654,0,0,1,2.8-.7h1.4v-.7a1.657,1.657,0,0,0-.5-1.2,1.7,1.7,0,0,0-1.3-.4,2.011,2.011,0,0,0-1.3.4,1.382,1.382,0,0,0-.5.9h-1.5a1.923,1.923,0,0,1,.4-1.2,2.729,2.729,0,0,1,1.2-.9,4.667,4.667,0,0,1,1.7-.3,3.335,3.335,0,0,1,2.3.7,2.876,2.876,0,0,1,.9,2v3.9a5.039,5.039,0,0,0,.3,1.9v.1h-1.4Zm-2.4-1.1a2.011,2.011,0,0,0,1.3-.4,2.581,2.581,0,0,0,.9-.9v-1.7H1057c-1.8,0-2.7.5-2.7,1.6a1.433,1.433,0,0,0,.5,1.1A1.609,1.609,0,0,0,1055.9,4273.2Z" transform="translate(12 -170)" fill="#12263f"/>
      <path id="Trazado_771844" data-name="Trazado 771844" d="M1061.4,4270a4.965,4.965,0,0,1,.9-3.1,2.852,2.852,0,0,1,2.4-1.2,2.964,2.964,0,0,1,2.4,1v-4.4h1.4v12h-1.3l-.1-.9a3.042,3.042,0,0,1-2.4,1.1,2.85,2.85,0,0,1-2.4-1.2,4.964,4.964,0,0,1-.9-3.1Zm1.4.2a3.4,3.4,0,0,0,.6,2.2,1.943,1.943,0,0,0,1.6.8,2.1,2.1,0,0,0,2-1.2v-3.9a2.1,2.1,0,0,0-2-1.2,2.136,2.136,0,0,0-1.7.8A5.513,5.513,0,0,0,1062.8,4270.2Z" transform="translate(12 -170)" fill="#12263f"/>
      <path id="Trazado_771845" data-name="Trazado 771845" d="M1070.4,4270a5.092,5.092,0,0,1,.5-2.2,2.939,2.939,0,0,1,1.4-1.5,3.324,3.324,0,0,1,2-.5,3.489,3.489,0,0,1,2.8,1.2,4.771,4.771,0,0,1,1.1,3.2v.1a5.092,5.092,0,0,1-.5,2.2,2.939,2.939,0,0,1-1.4,1.5,4.555,4.555,0,0,1-2,.5,3.631,3.631,0,0,1-2.8-1.2,4.771,4.771,0,0,1-1.1-3.2Zm1.4.2a3.5,3.5,0,0,0,.7,2.3,1.964,1.964,0,0,0,1.7.9,2.271,2.271,0,0,0,1.8-.9,4.265,4.265,0,0,0,.6-2.4,3.5,3.5,0,0,0-.7-2.3,2.019,2.019,0,0,0-1.8-.9,1.964,1.964,0,0,0-1.7.9A4.048,4.048,0,0,0,1071.8,4270.2Z" transform="translate(12 -170)" fill="#12263f"/>
      <path id="Trazado_771846" data-name="Trazado 771846" d="M1089.1,4274.3a2,2,0,0,1-.2-.9,3.249,3.249,0,0,1-2.4,1,3.139,3.139,0,0,1-2.1-.7,2.5,2.5,0,0,1-.8-1.8,2.393,2.393,0,0,1,1-2.1,4.654,4.654,0,0,1,2.8-.7h1.4v-.7a1.657,1.657,0,0,0-.5-1.2,1.7,1.7,0,0,0-1.3-.4,2.011,2.011,0,0,0-1.3.4,1.382,1.382,0,0,0-.5.9h-1.5a1.923,1.923,0,0,1,.4-1.2,2.729,2.729,0,0,1,1.2-.9,4.667,4.667,0,0,1,1.7-.3,3.335,3.335,0,0,1,2.3.7,2.876,2.876,0,0,1,.9,2v3.9a5.039,5.039,0,0,0,.3,1.9v.1h-1.4Zm-2.4-1.1a2.011,2.011,0,0,0,1.3-.4,2.581,2.581,0,0,0,.9-.9v-1.7h-1.1c-1.8,0-2.7.5-2.7,1.6a1.433,1.433,0,0,0,.5,1.1A1.61,1.61,0,0,0,1086.7,4273.2Z" transform="translate(12 -170)" fill="#12263f"/>
      <path id="Trazado_771847" data-name="Trazado 771847" d="M1094.1,4274.3h-1.4v-12h1.4Z" transform="translate(12 -170)" fill="#12263f"/>
      <path id="Trazado_771848" data-name="Trazado 771848" d="M1105.3,4272.1a.974.974,0,0,0-.4-.9,5.713,5.713,0,0,0-1.5-.6,5.553,5.553,0,0,1-1.7-.6,8.81,8.81,0,0,1-1-.8,2.016,2.016,0,0,1-.3-1.1,2.271,2.271,0,0,1,.9-1.8,3.232,3.232,0,0,1,2.2-.7,3.335,3.335,0,0,1,2.3.7,2.323,2.323,0,0,1,.9,1.9h-1.5a1.388,1.388,0,0,0-.5-1,1.845,1.845,0,0,0-1.3-.4,2.135,2.135,0,0,0-1.2.3.975.975,0,0,0-.4.9.909.909,0,0,0,.4.8,6.4,6.4,0,0,0,1.5.5,18.883,18.883,0,0,1,1.8.6,2.726,2.726,0,0,1,1,.8,2.133,2.133,0,0,1,.3,1.2,2.019,2.019,0,0,1-.9,1.8,3.613,3.613,0,0,1-2.4.7,3.427,3.427,0,0,1-1.8-.4,2.941,2.941,0,0,1-1.2-1,2.3,2.3,0,0,1-.4-1.4h1.4a1.426,1.426,0,0,0,.6,1.2,2.117,2.117,0,0,0,1.4.4,2.505,2.505,0,0,0,1.3-.3A.75.75,0,0,0,1105.3,4272.1Z" transform="translate(12 -170)" fill="#12263f"/>
      <path id="Trazado_771849" data-name="Trazado 771849" d="M1112.2,4274.5a3.927,3.927,0,0,1-2.8-1.1,4.248,4.248,0,0,1-1.1-3v-.3a5.092,5.092,0,0,1,.5-2.2,3.837,3.837,0,0,1,1.3-1.5,3.488,3.488,0,0,1,4.5.5,4.772,4.772,0,0,1,.9,3.1v.6h-5.7a3.222,3.222,0,0,0,.7,2,2.5,2.5,0,0,0,1.8.8,2.772,2.772,0,0,0,1.3-.3,2.364,2.364,0,0,0,.9-.8l.9.7A4.091,4.091,0,0,1,1112.2,4274.5Zm-.2-7.6a2.036,2.036,0,0,0-1.5.6,2.978,2.978,0,0,0-.7,1.8h4.2v-.1a2.353,2.353,0,0,0-.6-1.7A1.68,1.68,0,0,0,1112,4266.9Z" transform="translate(12 -170)" fill="#12263f"/>
      <path id="Trazado_771850" data-name="Trazado 771850" d="M1120.5,4273.3a2.391,2.391,0,0,0,1.4-.5,1.426,1.426,0,0,0,.6-1.2h1.4a2.653,2.653,0,0,1-.5,1.4,2.942,2.942,0,0,1-1.2,1,3.552,3.552,0,0,1-4.3-.8,5.09,5.09,0,0,1-1-3.2v-.2a5.092,5.092,0,0,1,.5-2.2,3.736,3.736,0,0,1,1.3-1.5,3.324,3.324,0,0,1,2-.5,3.583,3.583,0,0,1,2.4.9,3.029,3.029,0,0,1,1,2.2h-1.4a1.612,1.612,0,0,0-.6-1.3,1.742,1.742,0,0,0-1.4-.5,2.136,2.136,0,0,0-1.7.8,3.714,3.714,0,0,0-.6,2.3v.3a3.4,3.4,0,0,0,.6,2.2A1.539,1.539,0,0,0,1120.5,4273.3Z" transform="translate(12 -170)" fill="#12263f"/>
      <path id="Trazado_771851" data-name="Trazado 771851" d="M1127.5,4263.8v2h1.6v1.1h-1.6v5.2a1.883,1.883,0,0,0,.2.8.778.778,0,0,0,.7.3,1.95,1.95,0,0,0,.7-.1v1.2a5.156,5.156,0,0,1-1.1.2,2.036,2.036,0,0,1-1.5-.6,2.175,2.175,0,0,1-.5-1.7V4267h-1.5v-1.1h1.5v-2h1.5Z" transform="translate(12 -170)" fill="#12263f"/>
      <path id="Trazado_771852" data-name="Trazado 771852" d="M1130.2,4270a5.092,5.092,0,0,1,.5-2.2,2.939,2.939,0,0,1,1.4-1.5,3.324,3.324,0,0,1,2-.5,3.489,3.489,0,0,1,2.8,1.2,4.771,4.771,0,0,1,1.1,3.2v.1a5.092,5.092,0,0,1-.5,2.2,2.939,2.939,0,0,1-1.4,1.5,4.555,4.555,0,0,1-2,.5,3.631,3.631,0,0,1-2.8-1.2,4.771,4.771,0,0,1-1.1-3.2Zm1.4.2a3.5,3.5,0,0,0,.7,2.3,1.964,1.964,0,0,0,1.7.9,2.271,2.271,0,0,0,1.8-.9,4.265,4.265,0,0,0,.6-2.4,3.5,3.5,0,0,0-.7-2.3,2.019,2.019,0,0,0-1.8-.9,1.964,1.964,0,0,0-1.7.9A4.048,4.048,0,0,0,1131.6,4270.2Z" transform="translate(12 -170)" fill="#12263f"/>
      <path id="Trazado_771853" data-name="Trazado 771853" d="M1143.8,4267.2c-.2,0-.5-.1-.7-.1a1.875,1.875,0,0,0-1.9,1.2v6h-1.4v-8.5h1.4v1a2.111,2.111,0,0,1,2-1.1c.3,0,.5,0,.6.1Z" transform="translate(12 -170)" fill="#12263f"/>
      <path id="Trazado_771854" data-name="Trazado 771854" d="M1156.2,4270.2a4.965,4.965,0,0,1-.9,3.1,2.852,2.852,0,0,1-2.4,1.2,2.964,2.964,0,0,1-2.4-1v4.1h-1.4v-11.7h1.3l.1.9a3.1,3.1,0,0,1,2.5-1.1,3.042,3.042,0,0,1,2.4,1.1,5.074,5.074,0,0,1,.9,3.2v.2Zm-1.4-.2a3.919,3.919,0,0,0-.6-2.3,1.881,1.881,0,0,0-1.7-.8,2.2,2.2,0,0,0-2,1.2v4a2.1,2.1,0,0,0,2,1.2,2.289,2.289,0,0,0,1.7-.8A4.4,4.4,0,0,0,1154.8,4270Z" transform="translate(12 -170)" fill="#12263f"/>
      <path id="Trazado_771855" data-name="Trazado 771855" d="M1162.1,4267.2c-.2,0-.5-.1-.7-.1a1.875,1.875,0,0,0-1.9,1.2v6h-1.4v-8.5h1.4v1a2.111,2.111,0,0,1,2-1.1c.3,0,.5,0,.6.1Z" transform="translate(12 -170)" fill="#12263f"/>
      <path id="Trazado_771856" data-name="Trazado 771856" d="M1163.5,4263.6a1.422,1.422,0,0,1,.2-.6c.1-.2.4-.2.6-.2a1.071,1.071,0,0,1,.6.2,1,1,0,0,1,0,1.2c-.1.2-.4.2-.6.2a1.071,1.071,0,0,1-.6-.2C1163.5,4264.1,1163.5,4263.9,1163.5,4263.6Zm1.5,10.7h-1.4v-8.5h1.4Z" transform="translate(12 -170)" fill="#12263f"/>
      <path id="Trazado_771857" data-name="Trazado 771857" d="M1168.7,4265.9v.9a3.25,3.25,0,0,1,2.5-1.1,2.394,2.394,0,0,1,2.4,1.4,3.565,3.565,0,0,1,1.1-1,4.189,4.189,0,0,1,1.6-.4c1.9,0,2.8,1,2.8,2.9v5.7h-1.4v-5.6a1.954,1.954,0,0,0-.4-1.4,1.81,1.81,0,0,0-1.4-.4,1.9,1.9,0,0,0-1.3.5,1.612,1.612,0,0,0-.6,1.3v5.6h-1.5v-5.5a1.591,1.591,0,0,0-1.8-1.8,1.875,1.875,0,0,0-1.9,1.2v6.2h-1.4v-8.5h1.3Z" transform="translate(12 -170)" fill="#12263f"/>
      <path id="Trazado_771858" data-name="Trazado 771858" d="M1186.6,4274.3a2,2,0,0,1-.2-.9,3.249,3.249,0,0,1-2.4,1,3.139,3.139,0,0,1-2.1-.7,2.5,2.5,0,0,1-.8-1.8,2.393,2.393,0,0,1,1-2.1,4.654,4.654,0,0,1,2.8-.7h1.4v-.7a1.657,1.657,0,0,0-.5-1.2,1.7,1.7,0,0,0-1.3-.4,2.011,2.011,0,0,0-1.3.4,1.382,1.382,0,0,0-.5.9h-1.5a1.923,1.923,0,0,1,.4-1.2,2.729,2.729,0,0,1,1.2-.9,4.667,4.667,0,0,1,1.7-.3,3.335,3.335,0,0,1,2.3.7,2.876,2.876,0,0,1,.9,2v3.9a5.039,5.039,0,0,0,.3,1.9v.1h-1.4Zm-2.4-1.1a2.011,2.011,0,0,0,1.3-.4,2.581,2.581,0,0,0,.9-.9v-1.7h-1.1c-1.8,0-2.7.5-2.7,1.6a1.433,1.433,0,0,0,.5,1.1A1.61,1.61,0,0,0,1184.2,4273.2Z" transform="translate(12 -170)" fill="#12263f"/>
      <path id="Trazado_771859" data-name="Trazado 771859" d="M1194.2,4267.2c-.2,0-.5-.1-.7-.1a1.875,1.875,0,0,0-1.9,1.2v6h-1.4v-8.5h1.4v1a2.111,2.111,0,0,1,2-1.1c.3,0,.5,0,.6.1Z" transform="translate(12 -170)" fill="#12263f"/>
      <path id="Trazado_771860" data-name="Trazado 771860" d="M1195.5,4263.6a1.422,1.422,0,0,1,.2-.6c.1-.2.4-.2.6-.2a1.071,1.071,0,0,1,.6.2,1,1,0,0,1,0,1.2c-.1.2-.4.2-.6.2a1.071,1.071,0,0,1-.6-.2A.846.846,0,0,1,1195.5,4263.6Zm1.6,10.7h-1.4v-8.5h1.4Z" transform="translate(12 -170)" fill="#12263f"/>
      <path id="Trazado_771861" data-name="Trazado 771861" d="M1199,4270a5.092,5.092,0,0,1,.5-2.2,2.939,2.939,0,0,1,1.4-1.5,3.324,3.324,0,0,1,2-.5,3.489,3.489,0,0,1,2.8,1.2,4.771,4.771,0,0,1,1.1,3.2v.1a5.092,5.092,0,0,1-.5,2.2,2.939,2.939,0,0,1-1.4,1.5,4.555,4.555,0,0,1-2,.5,3.631,3.631,0,0,1-2.8-1.2,4.771,4.771,0,0,1-1.1-3.2Zm1.4.2a3.5,3.5,0,0,0,.7,2.3,1.964,1.964,0,0,0,1.7.9,2.271,2.271,0,0,0,1.8-.9,4.265,4.265,0,0,0,.6-2.4,3.5,3.5,0,0,0-.7-2.3,2.019,2.019,0,0,0-1.8-.9,1.964,1.964,0,0,0-1.7.9A4.048,4.048,0,0,0,1200.4,4270.2Z" transform="translate(12 -170)" fill="#12263f"/>
      <path id="Trazado_771862" data-name="Trazado 771862" d="M1215.2,4272.2l2-6.3h1.5l-3.4,9.8a2.691,2.691,0,0,1-2.5,2.1h-.3l-.5-.1v-1.2h.4a1.61,1.61,0,0,0,1.1-.3,3.472,3.472,0,0,0,.7-1.1l.3-.9-3-8.4h1.6Z" transform="translate(12 -170)" fill="#12263f"/>
      <path id="Trazado_771863" data-name="Trazado 771863" d="M983.6,4298.5a3.927,3.927,0,0,1-2.8-1.1,4.248,4.248,0,0,1-1.1-3v-.3a5.093,5.093,0,0,1,.5-2.2,3.836,3.836,0,0,1,1.3-1.5,3.488,3.488,0,0,1,4.5.5,4.772,4.772,0,0,1,.9,3.1v.6h-5.7a3.221,3.221,0,0,0,.7,2,2.5,2.5,0,0,0,1.8.8,2.771,2.771,0,0,0,1.3-.3,2.364,2.364,0,0,0,.9-.8l.9.7A3.944,3.944,0,0,1,983.6,4298.5Zm-.2-7.6a2.036,2.036,0,0,0-1.5.6,2.979,2.979,0,0,0-.7,1.8h4.2v-.1a2.353,2.353,0,0,0-.6-1.7A1.68,1.68,0,0,0,983.4,4290.9Z" transform="translate(12 -170)" fill="#12263f"/>
      <path id="Trazado_771864" data-name="Trazado 771864" d="M991.4,4293l1.9-3.1H995l-2.8,4.2,2.9,4.3h-1.7l-2-3.2-2,3.2h-1.7l2.9-4.3-2.8-4.2h1.7Z" transform="translate(12 -170)" fill="#12263f"/>
      <path id="Trazado_771865" data-name="Trazado 771865" d="M998.5,4287.8v2h1.6v1.1h-1.6v5.2a1.882,1.882,0,0,0,.2.8.778.778,0,0,0,.7.3,1.95,1.95,0,0,0,.7-.1v1.2a5.156,5.156,0,0,1-1.1.2,2.036,2.036,0,0,1-1.5-.6,2.175,2.175,0,0,1-.5-1.7V4291h-1.5v-1.1H997v-2h1.5Z" transform="translate(12 -170)" fill="#12263f"/>
      <path id="Trazado_771866" data-name="Trazado 771866" d="M1005.8,4291.2c-.2,0-.5-.1-.7-.1a1.875,1.875,0,0,0-1.9,1.2v6h-1.4v-8.5h1.4v1a2.111,2.111,0,0,1,2-1.1c.3,0,.5,0,.6.1v1.4Z" transform="translate(12 -170)" fill="#12263f"/>
      <path id="Trazado_771867" data-name="Trazado 771867" d="M1012,4298.3a2,2,0,0,1-.2-.9,3.249,3.249,0,0,1-2.4,1,3.139,3.139,0,0,1-2.1-.7,2.5,2.5,0,0,1-.8-1.8,2.393,2.393,0,0,1,1-2.1,4.654,4.654,0,0,1,2.8-.7h1.4v-.7a1.657,1.657,0,0,0-.5-1.2,1.7,1.7,0,0,0-1.3-.4,2.011,2.011,0,0,0-1.3.4,1.382,1.382,0,0,0-.5.9h-1.5a1.923,1.923,0,0,1,.4-1.2,2.728,2.728,0,0,1,1.2-.9,4.667,4.667,0,0,1,1.7-.3,3.334,3.334,0,0,1,2.3.7,2.877,2.877,0,0,1,.9,2v3.9a5.04,5.04,0,0,0,.3,1.9v.1H1012Zm-2.4-1.1a2.011,2.011,0,0,0,1.3-.4,2.581,2.581,0,0,0,.9-.9v-1.7h-1.1c-1.8,0-2.7.5-2.7,1.6a1.433,1.433,0,0,0,.5,1.1A2.018,2.018,0,0,0,1009.6,4297.2Z" transform="translate(12 -170)" fill="#12263f"/>
      <path id="Trazado_771868" data-name="Trazado 771868" d="M1018.9,4297.3a2.391,2.391,0,0,0,1.4-.5,1.426,1.426,0,0,0,.6-1.2h1.4a2.654,2.654,0,0,1-.5,1.4,2.942,2.942,0,0,1-1.2,1,3.552,3.552,0,0,1-4.3-.8,5.089,5.089,0,0,1-1-3.2v-.2a5.093,5.093,0,0,1,.5-2.2,3.736,3.736,0,0,1,1.3-1.5,3.324,3.324,0,0,1,2-.5,3.583,3.583,0,0,1,2.4.9,3.029,3.029,0,0,1,1,2.2h-1.4a1.612,1.612,0,0,0-.6-1.3,1.742,1.742,0,0,0-1.4-.5,2.136,2.136,0,0,0-1.7.8,3.714,3.714,0,0,0-.6,2.3v.3a3.4,3.4,0,0,0,.6,2.2A1.539,1.539,0,0,0,1018.9,4297.3Z" transform="translate(12 -170)" fill="#12263f"/>
      <path id="Trazado_771869" data-name="Trazado 771869" d="M1025.9,4287.8v2h1.6v1.1h-1.6v5.2a1.883,1.883,0,0,0,.2.8.778.778,0,0,0,.7.3,1.95,1.95,0,0,0,.7-.1v1.2a5.156,5.156,0,0,1-1.1.2,2.036,2.036,0,0,1-1.5-.6,2.175,2.175,0,0,1-.5-1.7V4291h-1.5v-1.1h1.5v-2h1.5Z" transform="translate(12 -170)" fill="#12263f"/>
      <path id="Trazado_771870" data-name="Trazado 771870" d="M1029.1,4287.6a1.422,1.422,0,0,1,.2-.6c.1-.2.4-.2.6-.2a1.071,1.071,0,0,1,.6.2,1,1,0,0,1,0,1.2c-.1.2-.4.2-.6.2a1.071,1.071,0,0,1-.6-.2A.846.846,0,0,1,1029.1,4287.6Zm1.6,10.7h-1.4v-8.5h1.4Z" transform="translate(12 -170)" fill="#12263f"/>
      <path id="Trazado_771871" data-name="Trazado 771871" d="M1035.8,4296.4l2.1-6.5h1.5l-3,8.5h-1.1l-3.1-8.5h1.5Z" transform="translate(12 -170)" fill="#12263f"/>
      <path id="Trazado_771872" data-name="Trazado 771872" d="M1040.3,4294a5.092,5.092,0,0,1,.5-2.2,2.939,2.939,0,0,1,1.4-1.5,3.324,3.324,0,0,1,2-.5,3.489,3.489,0,0,1,2.8,1.2,4.771,4.771,0,0,1,1.1,3.2v.1a5.092,5.092,0,0,1-.5,2.2,2.939,2.939,0,0,1-1.4,1.5,4.555,4.555,0,0,1-2,.5,3.631,3.631,0,0,1-2.8-1.2,4.771,4.771,0,0,1-1.1-3.2Zm1.4.2a3.5,3.5,0,0,0,.7,2.3,1.964,1.964,0,0,0,1.7.9,2.271,2.271,0,0,0,1.8-.9,4.265,4.265,0,0,0,.6-2.4,3.5,3.5,0,0,0-.7-2.3,2.019,2.019,0,0,0-1.8-.9,1.964,1.964,0,0,0-1.7.9A4.048,4.048,0,0,0,1041.7,4294.2Z" transform="translate(12 -170)" fill="#12263f"/>
      <path id="Trazado_771873" data-name="Trazado 771873" d="M1053.4,4294a4.965,4.965,0,0,1,.9-3.1,2.852,2.852,0,0,1,2.4-1.2,2.964,2.964,0,0,1,2.4,1v-4.4h1.4v12h-1.3l-.1-.9a3.042,3.042,0,0,1-2.4,1.1,2.85,2.85,0,0,1-2.4-1.2,4.964,4.964,0,0,1-.9-3.1Zm1.4.2a3.4,3.4,0,0,0,.6,2.2,1.943,1.943,0,0,0,1.6.8,2.1,2.1,0,0,0,2-1.2v-3.9a2.1,2.1,0,0,0-2-1.2,2.136,2.136,0,0,0-1.7.8A5.513,5.513,0,0,0,1054.8,4294.2Z" transform="translate(12 -170)" fill="#12263f"/>
      <path id="Trazado_771874" data-name="Trazado 771874" d="M1066.3,4298.5a3.927,3.927,0,0,1-2.8-1.1,4.248,4.248,0,0,1-1.1-3v-.3a5.092,5.092,0,0,1,.5-2.2,3.837,3.837,0,0,1,1.3-1.5,3.488,3.488,0,0,1,4.5.5,4.772,4.772,0,0,1,.9,3.1v.6h-5.7a3.222,3.222,0,0,0,.7,2,2.5,2.5,0,0,0,1.8.8,2.772,2.772,0,0,0,1.3-.3,2.364,2.364,0,0,0,.9-.8l.9.7A4.091,4.091,0,0,1,1066.3,4298.5Zm-.2-7.6a2.036,2.036,0,0,0-1.5.6,2.978,2.978,0,0,0-.7,1.8h4.2v-.1a2.353,2.353,0,0,0-.6-1.7A1.68,1.68,0,0,0,1066.1,4290.9Z" transform="translate(12 -170)" fill="#12263f"/>
      <path id="Trazado_771875" data-name="Trazado 771875" d="M1072.8,4298.3h-1.4v-12h1.4Z" transform="translate(12 -170)" fill="#12263f"/>
      <path id="Trazado_771876" data-name="Trazado 771876" d="M1086.2,4294.2a4.965,4.965,0,0,1-.9,3.1,2.852,2.852,0,0,1-2.4,1.2,2.964,2.964,0,0,1-2.4-1v4.1h-1.4v-11.7h1.3l.1.9a3.1,3.1,0,0,1,2.5-1.1,3.042,3.042,0,0,1,2.4,1.1,5.074,5.074,0,0,1,.9,3.2v.2Zm-1.4-.2a3.919,3.919,0,0,0-.6-2.3,1.881,1.881,0,0,0-1.7-.8,2.2,2.2,0,0,0-2,1.2v4a2.1,2.1,0,0,0,2,1.2,2.289,2.289,0,0,0,1.7-.8A4.4,4.4,0,0,0,1084.8,4294Z" transform="translate(12 -170)" fill="#12263f"/>
      <path id="Trazado_771877" data-name="Trazado 771877" d="M1093.3,4298.3a2,2,0,0,1-.2-.9,3.249,3.249,0,0,1-2.4,1,3.139,3.139,0,0,1-2.1-.7,2.5,2.5,0,0,1-.8-1.8,2.393,2.393,0,0,1,1-2.1,4.654,4.654,0,0,1,2.8-.7h1.4v-.7a1.657,1.657,0,0,0-.5-1.2,1.7,1.7,0,0,0-1.3-.4,2.011,2.011,0,0,0-1.3.4,1.382,1.382,0,0,0-.5.9h-1.5a1.923,1.923,0,0,1,.4-1.2,2.729,2.729,0,0,1,1.2-.9,4.667,4.667,0,0,1,1.7-.3,3.335,3.335,0,0,1,2.3.7,2.876,2.876,0,0,1,.9,2v3.9a5.039,5.039,0,0,0,.3,1.9v.1h-1.4Zm-2.4-1.1a2.011,2.011,0,0,0,1.3-.4,2.581,2.581,0,0,0,.9-.9v-1.7H1092c-1.8,0-2.7.5-2.7,1.6a1.433,1.433,0,0,0,.5,1.1A1.609,1.609,0,0,0,1090.9,4297.2Z" transform="translate(12 -170)" fill="#12263f"/>
      <path id="Trazado_771878" data-name="Trazado 771878" d="M1098.3,4286.3h1.8l-2.1,2.3h-1.2Zm0,12h-1.5v-8.5h1.5Z" transform="translate(12 -170)" fill="#12263f"/>
      <path id="Trazado_771879" data-name="Trazado 771879" d="M1105.6,4296.1a.974.974,0,0,0-.4-.9,5.713,5.713,0,0,0-1.5-.6,5.553,5.553,0,0,1-1.7-.6,8.81,8.81,0,0,1-1-.8,2.016,2.016,0,0,1-.3-1.1,2.271,2.271,0,0,1,.9-1.8,3.232,3.232,0,0,1,2.2-.7,3.335,3.335,0,0,1,2.3.7,2.323,2.323,0,0,1,.9,1.9h-1.5a1.388,1.388,0,0,0-.5-1,1.845,1.845,0,0,0-1.3-.4,2.135,2.135,0,0,0-1.2.3.975.975,0,0,0-.4.9.909.909,0,0,0,.4.8,6.4,6.4,0,0,0,1.5.5,18.883,18.883,0,0,1,1.8.6,2.726,2.726,0,0,1,1,.8,2.133,2.133,0,0,1,.3,1.2,2.019,2.019,0,0,1-.9,1.8,3.613,3.613,0,0,1-2.4.7,3.427,3.427,0,0,1-1.8-.4,2.941,2.941,0,0,1-1.2-1,2.3,2.3,0,0,1-.4-1.4h1.4a1.426,1.426,0,0,0,.6,1.2,2.117,2.117,0,0,0,1.4.4,2.505,2.505,0,0,0,1.3-.3A.75.75,0,0,0,1105.6,4296.1Z" transform="translate(12 -170)" fill="#12263f"/>
      <path id="Trazado_771880" data-name="Trazado 771880" d="M1109,4297.6a1.072,1.072,0,0,1,.2-.6,1.165,1.165,0,0,1,.7-.2,1.444,1.444,0,0,1,.7.2.735.735,0,0,1,.2.6,1.422,1.422,0,0,1-.2.6.843.843,0,0,1-.7.2,1.444,1.444,0,0,1-.7-.2C1109,4298.1,1109,4297.8,1109,4297.6Z" transform="translate(12 -170)" fill="#12263f"/>
    </g>
  </g>
</svg>
