<svg xmlns="http://www.w3.org/2000/svg" width="85" height="85" viewBox="0 0 85 85">
  <g id="Grupo_1054413" data-name="Grupo 1054413" transform="translate(-551 -538)">
    <circle id="Elipse_4741" data-name="Elipse 4741" cx="42.5" cy="42.5" r="42.5" transform="translate(551 538)" fill="#39a900"/>
    <circle id="Elipse_4742" data-name="Elipse 4742" cx="8.5" cy="8.5" r="8.5" transform="translate(555 542)" fill="#ffce40"/>
    <g id="abogado" transform="translate(561.074 551.532)">
      <path id="Trazado_771881" data-name="Trazado 771881" d="M56.237,43.378V43.29c-1.05-4.813-9.627-6.564-16.8-7.176l-2.275-1.925V30.863c9.889-1.575,9.8-12.69,9.8-12.777V18C44.248.058,33.046.408,31.733.5,30.858.408,24.82.146,20.619,6.534c-.263.35-6.389,9.452-3.763,16.8,1.313,3.588,4.551,6.214,9.627,7.614l.088.088v2.975c-.088,0-.175.088-.263.175l-2.363,1.925a51.2,51.2,0,0,0-6.826.963l-1.75-2.45c.088-.088,1.313-.613.613-1.488l-1.05-1.75a1.794,1.794,0,0,0-2.45-.438L6.7,34.977a1.794,1.794,0,0,0-.438,2.45L7.4,39.09C8.017,39.965,8.98,39,9.067,39l1.313,1.925L7.492,43.2.753,48.366a.941.941,0,0,0-.175,1.225.941.941,0,0,0,1.225.175l5.076-3.851C6.529,49.241,6,55.805,6,56.593a.827.827,0,0,0,.875.875H56.412a.827.827,0,0,0,.875-.875C57.375,55.367,56.325,44.6,56.237,43.378ZM7.754,36.464l5.776-4.026.7.963L8.455,37.427ZM39.872,55.63H36.2l-3.588-9.452V40.315l4.026-4.288,1.225,1.05L35.5,40.84C35.146,41.453,35.409,41.19,39.872,55.63ZM31.733,48.8l2.625,6.826H29.2ZM23.244,15.9a23.008,23.008,0,0,0,13.04-5.513c.7,1.925,2.188,5.163,4.988,6.651a15.608,15.608,0,0,1-8.751,14.527,2,2,0,0,1-1.575.088c-8.926-4.113-8.139-13.3-7.7-15.753Zm-4.638,6.914c-2.363-6.564,3.413-15.14,3.5-15.227,3.763-5.776,9.277-5.338,9.539-5.251h.175c.088,0,10.764-1.225,13.3,15.84,0,.788-.088,7.964-6.126,10.414a17.611,17.611,0,0,0,3.851-12.077.762.762,0,0,0-.525-.7c-3.676-1.575-4.9-7.089-4.9-7.176a.894.894,0,0,0-1.575-.35c0,.088-4.113,5.163-13.565,6.038a.93.93,0,0,0-.788.7c0,.088-1.575,7.439,2.45,13.3a10.837,10.837,0,0,1-5.338-5.513ZM30.158,33.226a3.621,3.621,0,0,0,3.151-.088,16.487,16.487,0,0,0,2.1-1.225V34.8L31.733,38.74l-3.326-3.676v-2.8a11.211,11.211,0,0,0,1.75.963Zm-3.326,2.8,4.026,4.288v5.863L27.27,55.63H23.682c4.463-14.44,4.726-14.177,4.376-14.79l-2.363-3.763ZM14.055,45.478l5.776-4.026.7.963-5.776,4.026ZM14.23,43.2,10.555,38.04l3.5-2.45,3.588,5.163ZM8.892,44.691v-.35l2.625-2.013,1.313,1.838-.438.263a.785.785,0,0,0-.175,1.225l1.138,1.663a1.794,1.794,0,0,0,2.45.438l5.776-4.026a1.794,1.794,0,0,0,.438-2.45l-1.138-1.663a.785.785,0,0,0-1.225-.175l-.438.263-.788-1.138a57.349,57.349,0,0,1,5.776-.788l2.188,3.588L21.932,55.63h-14c.175-2.45.7-8.839.963-10.939ZM41.71,55.63,37.247,41.365l2.188-3.588c8.751.788,14.44,2.888,15.052,5.688.35,4.026.875,9.8,1.05,12.077H41.71Z" fill="#fff"/>
    </g>
  </g>
</svg>
